<?xml version="1.0" standalone="no"?>
<!DOCTYPE svg PUBLIC "-//W3C//DTD SVG 20010904//EN"
 "http://www.w3.org/TR/2001/REC-SVG-20010904/DTD/svg10.dtd">
<svg version="1.0" xmlns="http://www.w3.org/2000/svg"
 width="400.000000pt" height="400.000000pt" viewBox="0 0 400.000000 400.000000"
 preserveAspectRatio="xMidYMid meet">
<metadata>
Created by potrace 1.16, written by Peter Selinger 2001-2019
</metadata>
<g transform="translate(0.000000,400.000000) scale(0.026667,-0.026667)"
fill="#000000" stroke="none">
<path d="M8351 14942 c-19 -3 -21 -6 -10 -13 11 -7 11 -9 -3 -9 -11 0 -18 -8
-18 -20 0 -11 -5 -20 -11 -20 -8 0 -8 -4 1 -14 10 -13 7 -14 -14 -10 -14 2
-26 0 -26 -5 0 -11 28 -18 145 -31 299 -35 734 -123 1062 -215 1763 -496 3279
-1625 4256 -3170 200 -318 438 -774 573 -1100 760 -1843 752 -3890 -23 -5720
-93 -219 -298 -626 -417 -830 -645 -1096 -1556 -2008 -2651 -2651 -193 -114
-626 -331 -828 -417 -1747 -739 -3713 -783 -5472 -120 -1257 474 -2341 1262
-3180 2311 -622 778 -1083 1683 -1345 2643 -121 443 -196 870 -242 1389 -20
228 -17 978 5 1205 36 360 80 647 153 980 30 141 104 426 120 470 5 13 1 15
-22 10 -22 -5 -25 -4 -14 4 13 9 13 11 -2 11 -13 0 -18 -8 -18 -25 0 -15 -6
-25 -14 -25 -10 0 -13 7 -11 21 3 16 1 18 -9 10 -7 -6 -17 -7 -21 -3 -5 4 -5
2 -2 -4 3 -6 -3 -21 -14 -32 -12 -13 -15 -22 -7 -22 6 0 3 -7 -8 -16 -10 -8
-13 -12 -5 -9 10 6 10 2 -2 -16 -37 -58 -155 -597 -201 -919 -62 -428 -81
-745 -73 -1215 4 -192 11 -399 16 -460 6 -60 13 -139 16 -175 20 -224 76 -576
136 -849 194 -881 558 -1742 1055 -2499 1131 -1720 2909 -2898 4929 -3266 204
-37 501 -77 735 -98 197 -18 1023 -18 1220 0 873 79 1657 278 2428 618 190 84
555 271 742 380 1894 1106 3211 2985 3604 5139 37 204 77 501 98 735 18 197
18 1023 0 1220 -79 873 -278 1657 -618 2428 -84 190 -271 555 -380 742 -681
1166 -1667 2130 -2848 2784 -781 434 -1640 724 -2509 850 -202 30 -241 32
-232 14 4 -7 1 -6 -7 2 -7 8 -24 14 -37 12z"/>
<path d="M7974 14632 c-10 -15 -19 -21 -21 -15 -3 9 -11 6 -25 -7 -12 -11 -26
-16 -31 -13 -6 4 -8 0 -4 -10 4 -10 2 -16 -6 -14 -7 1 -11 -6 -9 -18 l4 -20
-16 20 c-15 20 -15 20 -16 -2 0 -26 -10 -29 -29 -10 -11 10 -12 9 -6 -2 6 -11
4 -13 -8 -8 -15 6 -22 -3 -18 -25 0 -4 -6 -5 -14 -2 -11 5 -13 2 -9 -10 4 -12
2 -15 -9 -10 -8 3 -18 0 -23 -7 -5 -8 -3 -10 6 -4 9 5 11 4 6 -3 -4 -7 -16
-12 -27 -12 -10 0 -19 -5 -19 -11 0 -5 -5 -7 -12 -3 -8 5 -9 0 -6 -14 7 -27 0
-28 -18 -4 -13 16 -13 16 -14 -3 0 -17 -2 -18 -11 -5 -9 12 -10 11 -6 -7 5
-22 -2 -28 -31 -24 -8 1 -19 -2 -25 -7 -7 -5 -111 -12 -232 -16 -557 -17
-1052 -85 -1535 -212 -1056 -275 -1976 -756 -2800 -1463 -154 -132 -513 -485
-641 -629 -314 -355 -610 -766 -833 -1155 -115 -201 -272 -513 -346 -687 -55
-130 -76 -164 -96 -156 -7 3 -10 -2 -7 -15 3 -10 10 -16 17 -12 6 3 3 -3 -8
-15 -10 -12 -22 -19 -27 -17 -4 3 -12 -3 -18 -12 -6 -10 -11 -13 -11 -7 0 14
-80 -5 -80 -19 0 -4 5 -5 12 -1 7 4 8 3 4 -5 -4 -6 -11 -9 -16 -6 -4 3 -11 -1
-13 -7 -3 -8 -6 -6 -6 5 -1 21 -21 23 -21 1 0 -8 -4 -12 -10 -9 -6 4 -10 -5
-10 -20 0 -18 4 -24 13 -19 6 4 9 3 4 -1 -9 -10 -57 -13 -57 -4 0 4 -9 5 -21
2 -15 -4 -17 -8 -8 -14 9 -5 5 -10 -13 -14 -15 -4 -25 -12 -22 -19 2 -7 -4
-12 -15 -12 -15 0 -17 4 -10 17 5 10 9 21 9 26 -1 4 -9 -8 -20 -27 -11 -19
-19 -31 -20 -26 0 5 -11 -3 -25 -18 -15 -16 -39 -73 -64 -154 -295 -937 -394
-1915 -295 -2897 115 -1150 513 -2262 1155 -3227 278 -418 553 -753 914 -1113
448 -448 918 -811 1470 -1134 183 -108 638 -333 837 -415 681 -281 1347 -447
2098 -522 218 -22 877 -31 1118 -15 1606 104 3068 709 4292 1775 148 128 517
498 647 646 934 1074 1516 2332 1713 3710 58 407 65 512 65 1035 0 523 -7 628
-65 1035 -175 1222 -677 2401 -1439 3375 -991 1267 -2368 2163 -3926 2554
-344 86 -861 169 -1152 185 -90 5 -91 5 -109 -22z m17 -362 c698 -54 1326
-193 1964 -438 386 -147 860 -383 1160 -577 162 -104 230 -150 233 -157 2 -5
8 -8 14 -8 5 0 36 -20 68 -45 32 -25 63 -45 69 -45 6 0 15 -9 21 -20 6 -11 15
-18 21 -15 5 4 9 2 9 -4 0 -5 8 -12 18 -15 9 -3 32 -20 50 -36 17 -17 32 -28
32 -25 0 4 6 0 14 -7 35 -34 67 -58 78 -58 6 0 8 -3 4 -7 -3 -4 2 -12 13 -17
25 -14 91 -69 146 -123 24 -24 49 -43 54 -43 6 0 11 -4 11 -10 0 -5 5 -10 11
-10 6 0 38 -27 70 -60 33 -34 59 -58 59 -54 0 4 14 -7 30 -24 17 -18 30 -30
30 -28 0 2 17 -12 38 -31 20 -19 37 -38 36 -41 -1 -4 7 -15 17 -24 11 -10 19
-15 19 -11 0 4 14 -7 30 -25 17 -18 30 -37 30 -43 0 -5 4 -9 9 -9 6 0 23 -12
38 -27 15 -14 21 -23 13 -19 -8 4 -6 1 5 -8 52 -39 65 -52 65 -64 0 -7 4 -11
10 -7 5 3 16 -8 25 -25 8 -16 22 -30 30 -30 8 0 14 -6 12 -12 -1 -7 3 -12 10
-11 6 2 17 -13 24 -31 9 -24 17 -32 27 -28 9 3 13 1 9 -5 -4 -6 2 -13 13 -16
14 -3 18 -10 14 -21 -4 -11 -2 -16 7 -14 8 2 13 -4 13 -14 -1 -10 5 -18 12
-18 22 0 77 -58 71 -74 -4 -9 -1 -13 7 -10 7 3 18 -7 24 -21 6 -14 18 -25 26
-25 10 0 13 -6 9 -17 -4 -11 -3 -14 5 -9 11 6 16 -5 13 -26 0 -4 8 -10 19 -13
11 -4 18 -11 15 -16 -4 -5 1 -9 10 -9 9 0 13 -4 10 -10 -3 -5 1 -10 10 -10 9
0 14 -4 11 -9 -8 -12 32 -86 47 -86 6 0 13 -10 15 -22 2 -13 8 -23 13 -23 6 0
7 5 3 12 -5 7 -3 8 5 4 7 -5 10 -14 7 -22 -3 -9 2 -14 14 -14 11 0 19 -6 17
-12 -1 -7 4 -12 11 -10 8 1 11 -2 7 -8 -3 -5 3 -20 15 -32 12 -13 19 -31 17
-40 -3 -10 -2 -17 2 -16 3 0 14 0 25 -1 16 -1 17 -3 5 -18 -12 -15 -12 -16 4
-10 10 4 16 3 12 -3 -3 -5 2 -15 10 -22 39 -32 53 -51 48 -64 -3 -8 1 -14 10
-14 18 0 32 -34 21 -52 -5 -7 -2 -9 9 -5 8 3 21 -1 27 -9 12 -13 7 -18 -13
-15 -5 1 -5 -3 -2 -9 4 -6 13 -9 21 -6 10 4 16 -4 21 -24 5 -27 13 -34 34 -32
4 1 5 -8 2 -18 -3 -11 -9 -20 -15 -20 -5 0 -3 -6 4 -14 7 -8 16 -12 21 -9 4 2
14 -2 21 -10 11 -11 12 -17 3 -27 -9 -10 -9 -11 1 -6 6 4 12 2 12 -4 0 -7 7
-10 15 -6 8 3 14 2 13 -2 -4 -15 14 -52 23 -47 5 4 9 2 9 -4 0 -5 -6 -11 -12
-14 -8 -2 -1 -10 15 -17 20 -10 24 -16 15 -22 -9 -5 -8 -8 5 -8 10 0 15 -4 12
-10 -3 -5 -1 -10 4 -10 6 0 11 -7 11 -16 0 -8 4 -12 10 -9 6 4 7 -1 3 -11 -4
-11 -2 -15 4 -11 6 4 14 -4 18 -20 4 -17 2 -29 -7 -34 -10 -7 -9 -9 5 -9 23 0
57 -35 57 -61 0 -11 -4 -18 -10 -14 -5 3 -7 12 -4 19 3 7 -3 19 -13 27 -16 13
-17 12 -4 -3 11 -15 11 -18 0 -18 -8 -1 1 -14 20 -30 18 -15 30 -33 27 -39 -5
-7 -1 -8 10 -4 13 5 16 3 11 -10 -3 -9 -2 -17 4 -17 14 0 52 -88 43 -102 -4
-7 -3 -8 4 -4 12 7 35 -27 25 -38 -3 -3 -1 -6 6 -6 8 0 11 -6 7 -16 -3 -8 -2
-12 4 -9 10 6 13 -3 13 -37 0 -10 4 -15 8 -12 5 3 12 -3 15 -13 3 -10 12 -30
20 -45 11 -21 11 -27 2 -31 -8 -3 -6 -6 5 -6 9 -1 17 -8 17 -16 0 -9 6 -26 14
-38 18 -28 109 -258 109 -274 0 -7 4 -13 7 -13 13 0 178 -510 229 -710 139
-538 205 -1021 218 -1590 28 -1287 -311 -2563 -972 -3660 -873 -1449 -2253
-2533 -3850 -3024 -1982 -609 -4115 -300 -5830 844 -1584 1058 -2659 2722
-2964 4590 -65 399 -85 654 -85 1110 -1 640 49 1030 205 1615 181 675 473
1352 827 1920 212 340 414 613 676 915 130 150 522 542 656 656 58 49 107 91
110 94 20 21 189 154 306 242 1009 753 2237 1215 3513 1323 191 16 866 19
1052 5z"/>
<path d="M7456 13950 c-39 -54 -43 -55 -131 -40 -84 14 -204 -4 -274 -40 -77
-40 -125 -45 -171 -17 -29 18 -49 21 -115 20 -90 -2 -169 -17 -202 -38 -11 -8
-29 -36 -38 -62 -9 -26 -26 -64 -36 -84 -25 -47 -24 -60 6 -82 35 -25 56 -11
97 65 39 71 82 102 156 113 27 4 54 16 69 31 20 20 28 22 39 13 8 -6 14 -20
14 -30 0 -20 15 -25 25 -9 3 6 10 10 15 10 19 0 30 -75 34 -236 2 -95 6 -176
10 -182 3 -6 2 -13 -3 -16 -5 -4 -7 -32 -5 -64 2 -31 6 -95 9 -142 2 -47 10
-112 16 -146 17 -88 9 -110 -54 -139 -28 -14 -71 -27 -94 -31 -33 -5 -43 -11
-43 -25 0 -11 7 -19 15 -19 8 0 15 -6 15 -14 0 -23 29 -27 129 -16 53 5 158
14 233 20 151 10 178 19 178 55 0 45 -10 55 -55 55 -91 0 -115 24 -116 117 0
32 -5 105 -10 163 -5 58 -11 134 -14 170 -3 36 -12 141 -20 234 -9 112 -11
175 -5 187 17 31 53 49 100 49 25 1 64 5 88 9 52 10 72 -6 99 -78 27 -74 63
-102 91 -68 15 17 9 226 -7 256 -7 12 -11 32 -8 42 8 28 2 24 -37 -31z"/>
<path d="M7830 13913 c0 -5 24 -20 53 -34 42 -19 53 -29 55 -51 2 -20 9 -28
22 -28 44 0 43 -40 -5 -355 -8 -49 -19 -130 -25 -180 -5 -49 -12 -99 -14 -110
-4 -20 -13 -88 -21 -152 -6 -57 -16 -75 -51 -89 -18 -8 -51 -14 -72 -14 -58 0
-102 -11 -102 -25 0 -7 7 -15 15 -19 8 -3 15 -12 15 -20 0 -21 12 -23 251 -51
118 -13 296 -34 396 -47 130 -16 190 -19 210 -12 33 11 65 56 92 130 31 83 34
100 18 116 -8 8 -16 23 -18 33 -8 37 -27 24 -68 -43 -57 -94 -80 -114 -140
-120 -70 -6 -207 15 -267 43 -64 29 -86 71 -62 113 9 15 22 72 28 127 12 99
23 133 44 147 6 4 42 8 79 8 38 0 76 4 86 10 27 14 47 -14 55 -75 8 -63 37
-93 70 -72 25 17 31 43 47 196 10 99 10 115 -3 122 -10 5 -14 18 -11 33 3 13
0 27 -6 30 -7 5 -25 -22 -47 -69 -27 -55 -43 -77 -60 -81 -34 -9 -192 22 -210
41 -9 8 -20 15 -25 15 -16 0 -9 53 10 74 13 15 22 49 30 120 6 54 16 107 22
118 17 31 53 39 132 27 40 -5 88 -9 107 -8 19 0 41 1 47 0 20 -2 45 -47 62
-113 20 -76 46 -98 82 -69 21 17 24 29 27 101 2 61 -2 89 -13 106 -8 13 -15
35 -15 49 0 30 -20 33 -45 5 -21 -24 -59 -26 -108 -5 -19 8 -90 22 -157 32
-105 14 -128 15 -173 3 -76 -20 -163 -14 -216 16 -47 26 -121 43 -121 27z"/>
<path d="M5881 13677 c-6 -15 -10 -31 -9 -35 2 -12 -15 -46 -34 -66 -10 -11
-18 -26 -18 -35 0 -8 -14 -36 -31 -62 -35 -55 -48 -129 -52 -290 -1 -69 2
-101 12 -112 11 -14 10 -23 -8 -60 -25 -51 -46 -234 -36 -311 6 -47 5 -49 -38
-91 -25 -23 -65 -50 -91 -60 -25 -10 -46 -20 -46 -24 1 -3 10 -17 21 -30 15
-18 29 -24 55 -23 19 1 39 4 43 6 4 3 59 19 122 36 128 35 152 50 142 89 -10
42 -21 51 -49 39 -16 -7 -35 -8 -56 -2 -39 11 -48 46 -24 93 9 16 16 51 16 76
0 51 20 99 48 114 10 5 61 22 113 36 51 15 99 31 106 37 18 15 29 4 89 -90 31
-48 66 -95 77 -104 29 -23 16 -45 -46 -78 -26 -14 -47 -27 -47 -30 0 -3 12
-18 26 -34 18 -19 33 -26 48 -23 62 13 337 90 376 105 48 19 61 44 40 81 -9
18 -17 20 -74 14 l-63 -6 -54 76 c-30 42 -157 227 -284 412 -126 186 -238 347
-247 359 l-16 21 -11 -28z m39 -402 c55 -81 76 -105 94 -105 55 0 53 -51 -3
-80 -57 -28 -146 -52 -188 -48 l-38 3 2 47 c0 26 8 57 17 70 9 12 16 41 16 64
0 37 19 154 25 154 2 0 35 -47 75 -105z"/>
<path d="M9753 13527 c-4 -6 18 -28 57 -57 16 -12 31 -52 25 -70 -3 -10 -1
-21 5 -25 20 -12 0 -63 -97 -260 -52 -104 -98 -197 -102 -205 -5 -8 -21 -40
-37 -70 -15 -30 -37 -68 -48 -83 -33 -45 -30 -174 5 -247 41 -85 138 -193 217
-239 101 -60 161 -76 277 -76 86 0 106 4 145 24 125 66 179 139 325 436 127
258 159 303 220 311 72 9 84 14 90 33 7 24 -11 71 -27 71 -7 0 -82 34 -167 75
-84 41 -164 75 -177 75 -42 0 -38 -21 15 -70 84 -77 78 -101 -124 -515 -127
-258 -183 -315 -314 -315 -157 0 -313 134 -266 228 8 15 23 59 35 97 33 108
245 552 282 593 14 14 33 22 54 22 18 0 45 5 59 10 27 10 27 10 15 88 0 1 -6
2 -13 2 -11 0 -129 53 -311 140 -65 31 -132 44 -143 27z"/>
<path d="M5185 13492 c-10 -23 -20 -42 -24 -42 -36 -1 -151 -35 -204 -60 -101
-48 -167 -135 -138 -183 10 -15 10 -18 -1 -11 -10 6 -11 5 -1 -7 6 -8 13 -18
15 -24 1 -5 5 -9 8 -8 3 1 5 -15 5 -35 0 -24 -4 -36 -12 -35 -7 2 -10 -4 -7
-12 3 -7 15 -16 27 -18 17 -3 16 -5 -6 -6 -16 0 -35 6 -43 14 -12 12 -12 15
-2 15 8 0 7 4 -4 11 -10 5 -18 17 -18 24 0 8 -4 15 -10 15 -5 0 -10 9 -10 19
0 11 -5 23 -10 26 -6 4 -8 10 -5 15 10 16 -35 32 -90 32 -44 1 -67 -7 -144
-48 -51 -26 -108 -63 -127 -82 -32 -31 -34 -37 -34 -95 0 -98 9 -133 37 -148
23 -12 27 -11 44 10 13 16 19 39 19 75 0 78 37 130 128 180 67 37 76 46 73 71
-5 38 96 -156 200 -382 89 -196 190 -393 201 -394 7 -1 17 -1 21 0 5 1 6 -3 3
-8 -4 -5 -1 -11 5 -13 31 -10 -66 -121 -118 -134 -13 -4 -23 -14 -23 -24 0
-20 30 -50 51 -50 19 0 429 198 452 218 19 17 22 44 7 72 -9 17 -11 17 -49 -2
-53 -26 -133 -22 -137 7 -2 11 -84 190 -184 397 -99 208 -180 382 -180 387 0
4 35 24 78 44 56 25 94 36 141 38 l65 4 26 -39 c30 -44 52 -59 74 -50 24 9 29
41 10 69 -9 14 -34 67 -54 117 l-38 92 -17 -42z"/>
<path d="M11107 12859 c-24 -14 -22 -24 18 -76 19 -26 35 -57 35 -72 0 -29
-45 -112 -81 -152 -42 -44 -124 -141 -193 -227 -36 -45 -79 -97 -95 -115 -16
-18 -46 -54 -67 -82 -95 -126 -133 -144 -219 -106 -36 16 -51 18 -61 10 -22
-18 -17 -35 21 -63 19 -15 32 -32 29 -40 -3 -7 13 -24 38 -41 24 -15 56 -41
72 -57 17 -15 36 -28 43 -28 7 0 19 -13 28 -29 23 -46 60 -70 93 -62 45 12 42
53 -7 106 -47 51 -48 55 -22 76 10 9 35 41 55 70 19 30 63 88 96 129 190 239
258 340 261 387 1 10 5 0 10 -22 9 -47 10 -490 0 -835 -3 -135 -3 -246 1 -248
5 -2 8 -13 8 -24 0 -66 121 -59 163 9 6 11 49 63 160 199 9 10 53 64 99 119
46 56 99 121 118 145 141 176 192 215 266 205 65 -8 94 2 94 34 0 34 -5 39
-69 86 -29 21 -101 78 -160 127 -58 48 -109 88 -113 88 -4 0 -12 -9 -18 -20
-9 -17 -5 -28 25 -67 49 -64 47 -94 -14 -185 -51 -74 -274 -352 -304 -377 -16
-12 -17 -9 -17 40 0 30 7 73 15 95 11 33 14 100 13 315 -1 151 2 305 6 342 9
80 -2 115 -42 139 -22 13 -171 134 -252 204 -10 9 -20 10 -33 3z"/>
<path d="M3865 12787 c-68 -23 -101 -44 -148 -97 -62 -69 -83 -145 -55 -205
11 -25 31 -31 62 -19 14 5 14 9 1 34 -8 16 -15 34 -15 40 0 22 95 123 127 137
52 21 131 16 191 -12 60 -28 82 -31 100 -13 21 21 13 55 -25 97 -38 41 -39 42
-118 46 -52 3 -94 0 -120 -8z"/>
<path d="M3580 12363 c1 -19 40 -76 90 -133 89 -102 159 -121 363 -100 81 8
150 9 207 4 l84 -9 35 -45 c18 -25 38 -44 43 -42 20 6 27 -47 12 -92 -33 -97
-156 -178 -280 -184 -66 -4 -76 -1 -139 32 -116 61 -122 49 -30 -54 36 -40 65
-76 65 -80 0 -11 49 -30 80 -30 80 0 235 84 330 180 116 116 150 221 110 340
-24 71 -66 154 -86 171 -10 8 -20 5 -40 -10 -25 -20 -59 -21 -74 -2 -21 28
-203 36 -285 13 -22 -6 -73 -12 -112 -14 -40 -1 -73 -6 -73 -10 0 -4 -7 -8
-16 -8 -8 0 -12 5 -9 10 3 6 1 10 -4 10 -6 0 -11 -5 -11 -11 0 -6 -7 -8 -15
-5 -8 3 -22 9 -32 13 -11 4 -14 3 -9 -5 9 -16 1 -15 -16 1 -24 21 -57 37 -79
37 -15 0 -19 5 -15 15 4 12 -4 15 -44 15 -28 0 -50 -3 -50 -7z"/>
<path d="M7345 12323 c-376 -18 -686 -62 -1025 -148 -1279 -322 -2378 -1166
-3043 -2336 -78 -139 -147 -274 -233 -463 -36 -77 -73 -149 -82 -160 -9 -11
-11 -16 -5 -12 7 4 5 -6 -5 -24 -9 -16 -22 -28 -28 -26 -6 3 -16 0 -22 -6 -6
-6 -12 -6 -16 1 -10 16 -27 13 -24 -3 2 -8 -1 -14 -7 -13 -5 1 -9 7 -7 12 2 6
0 6 -5 2 -4 -5 -8 -12 -8 -15 0 -4 -4 -13 -8 -19 -5 -7 -5 -13 0 -13 4 0 3 -4
-3 -8 -6 -4 -27 -56 -47 -117 -263 -819 -298 -1776 -97 -2622 79 -331 176
-611 357 -1028 75 -174 217 -436 381 -703 45 -74 82 -138 82 -143 0 -5 5 -9
10 -9 6 0 10 -6 10 -13 0 -8 9 -22 21 -33 12 -10 29 -35 39 -54 10 -19 30 -48
45 -63 15 -15 25 -27 21 -27 -3 0 2 -9 11 -19 10 -11 34 -40 53 -66 19 -26 47
-60 63 -75 15 -16 27 -33 27 -39 0 -6 5 -11 12 -11 6 0 9 -2 6 -5 -3 -3 27
-39 66 -80 39 -41 82 -88 96 -103 14 -16 28 -27 33 -25 4 2 7 0 7 -5 0 -14
127 -142 134 -135 3 3 6 -1 6 -10 0 -10 5 -17 10 -17 13 0 60 -49 60 -61 0 -5
6 -9 14 -9 7 0 24 -10 37 -23 13 -12 49 -43 79 -67 30 -25 70 -59 89 -77 20
-18 50 -40 68 -50 18 -10 33 -21 33 -24 0 -4 24 -22 53 -40 64 -41 78 -54 69
-64 -4 -5 -1 -5 5 -1 7 4 22 -1 33 -12 11 -10 33 -25 48 -33 15 -8 31 -20 35
-26 4 -7 15 -13 23 -13 9 0 12 -5 8 -12 -5 -7 -2 -9 8 -5 9 3 25 -3 36 -14 12
-10 24 -19 27 -19 4 0 25 -16 47 -35 22 -19 43 -33 47 -32 12 3 81 -36 81 -46
0 -6 3 -8 6 -5 3 4 33 -9 66 -28 33 -19 64 -34 70 -34 5 0 6 -4 3 -10 -3 -5 2
-10 13 -10 11 0 30 -9 44 -19 13 -11 37 -23 51 -26 15 -4 27 -11 27 -16 0 -5
3 -8 8 -8 20 3 32 -2 26 -12 -4 -8 0 -9 15 -4 12 3 21 2 21 -4 0 -5 10 -13 23
-17 12 -3 30 -13 39 -21 9 -8 21 -13 25 -10 5 3 36 -7 68 -23 33 -16 75 -32
93 -36 17 -3 32 -10 32 -16 0 -5 5 -6 10 -3 6 3 12 0 15 -7 3 -8 20 -15 38
-16 17 -2 34 -7 35 -12 2 -6 16 -10 32 -10 15 0 30 -7 34 -15 3 -9 12 -12 21
-8 9 3 29 -3 44 -15 18 -13 37 -19 50 -15 12 3 21 1 21 -6 0 -5 7 -8 15 -5 8
4 15 1 15 -5 0 -6 3 -10 8 -9 15 4 82 -13 82 -22 0 -4 8 -7 17 -6 9 2 28 -3
42 -10 27 -13 83 -26 114 -25 10 0 15 -5 11 -11 -5 -7 -1 -9 9 -5 9 3 19 2 22
-2 3 -5 14 -7 25 -4 12 3 20 0 20 -6 0 -7 5 -9 10 -6 6 4 24 0 40 -9 17 -8 30
-10 30 -5 0 6 5 7 11 4 5 -4 25 -9 42 -12 44 -7 62 -11 62 -14 0 -1 9 -3 21
-4 50 -5 100 -18 112 -27 8 -7 12 -7 12 1 0 8 5 9 18 2 19 -10 31 -12 95 -11
21 1 36 -3 34 -7 -3 -4 14 -8 36 -9 71 0 128 -8 133 -16 3 -4 17 -5 31 -2 21
6 24 4 18 -7 -8 -12 -6 -12 8 -1 9 8 21 11 26 8 5 -4 63 -8 128 -11 65 -2 118
-4 118 -5 0 -6 308 -3 312 3 3 4 11 3 18 -3 10 -8 14 -7 17 2 4 10 9 10 23 -2
10 -8 16 -10 12 -4 -4 8 18 11 71 12 88 1 168 8 327 28 17 2 59 6 94 9 36 3
71 11 78 17 10 8 13 7 13 -3 0 -9 3 -10 8 -4 9 13 27 17 77 18 22 1 42 5 45 9
3 4 21 9 40 12 19 2 46 7 60 11 50 14 126 28 158 30 19 1 37 6 40 11 4 5 12
10 17 10 6 1 23 4 38 8 22 5 27 4 21 -6 -4 -7 3 -4 15 7 20 18 47 25 94 26 10
0 15 5 11 11 -4 6 -3 8 3 5 6 -4 28 2 49 12 21 11 42 17 47 14 4 -2 14 1 22 7
12 10 15 10 15 1 0 -8 6 -7 16 3 14 14 35 21 57 17 4 0 7 4 7 11 0 6 3 9 6 5
4 -3 20 1 36 9 17 9 40 17 52 19 39 6 66 17 66 27 0 6 7 8 15 4 8 -3 15 0 15
7 0 8 4 6 10 -3 8 -13 10 -12 10 3 0 9 3 16 8 15 4 -1 17 3 28 10 12 6 24 9
27 5 3 -3 13 2 22 11 9 9 21 14 25 11 5 -3 39 10 75 29 40 22 65 31 65 23 0
-6 5 -4 11 5 5 10 18 18 28 18 10 0 28 9 41 20 13 11 29 20 36 20 7 0 15 6 17
13 4 9 8 8 16 -3 9 -13 11 -12 11 3 0 13 6 17 23 15 13 -2 21 2 20 9 -2 7 3
10 10 7 7 -2 21 4 31 15 10 11 24 17 32 14 8 -3 14 1 14 11 0 15 11 20 38 17
7 -1 15 5 18 14 4 9 12 14 19 11 8 -3 16 2 19 11 4 8 13 13 21 9 9 -3 15 0 15
9 0 9 6 12 18 8 9 -3 14 -3 10 1 -12 14 15 35 30 24 9 -8 12 -6 12 6 0 9 5 17
10 17 6 1 14 2 18 3 5 0 16 9 26 18 19 20 31 24 21 8 -3 -6 1 -7 9 -4 9 3 13
10 10 15 -3 5 13 17 36 26 22 10 43 26 46 35 3 10 12 18 20 18 8 0 14 5 14 10
0 6 11 10 25 10 16 0 25 6 25 15 0 10 10 15 28 15 21 0 24 2 12 10 -13 8 -12
10 3 10 9 0 27 11 39 25 12 14 28 23 35 21 7 -3 15 -1 18 4 3 4 -1 10 -7 13
-7 2 2 7 20 11 19 5 30 12 26 18 -5 7 1 9 15 5 19 -5 20 -3 9 11 -11 14 -10
15 5 9 10 -4 16 -3 12 2 -6 10 46 51 64 51 6 0 11 5 11 11 0 5 5 7 10 4 6 -3
10 1 10 9 0 9 7 16 15 16 8 0 15 5 15 11 0 5 4 8 9 5 5 -3 11 4 14 16 5 17 9
19 21 9 9 -7 17 -8 20 -2 3 5 0 12 -6 14 -7 3 1 11 20 18 17 8 32 19 32 25 0
14 83 84 99 84 6 0 11 5 11 10 0 13 77 90 83 83 3 -2 8 5 12 17 5 17 9 19 21
9 12 -10 13 -9 9 3 -4 10 5 23 24 37 16 12 32 30 36 40 3 10 16 24 30 31 13 7
22 17 19 22 -3 5 3 12 15 15 12 3 21 11 21 19 0 7 12 21 28 31 40 26 54 42 47
53 -8 13 8 13 23 0 6 -6 10 -7 7 -4 -6 10 24 64 36 64 6 0 7 5 4 10 -3 6 1 10
9 10 15 0 21 12 17 34 -1 5 5 3 14 -4 9 -7 15 -9 14 -4 -4 23 2 35 14 28 9 -6
9 -5 1 7 -9 11 -8 17 4 29 9 8 18 14 19 13 2 -2 11 -3 21 -2 10 0 12 3 5 6
-19 7 -16 25 10 48 12 11 27 29 34 40 6 11 16 19 22 18 6 -2 8 4 4 14 -5 13
-2 15 11 10 9 -4 15 -3 11 2 -10 17 7 42 25 36 20 -6 36 10 21 20 -6 3 -8 12
-5 20 4 8 9 13 13 11 9 -6 25 16 29 39 2 11 19 35 38 52 19 18 28 33 22 34 -7
1 -2 4 12 8 14 4 24 13 22 20 -1 7 3 19 9 27 6 8 8 14 4 14 -4 0 -2 7 5 15 7
8 17 12 23 8 6 -3 7 -1 3 6 -8 13 18 44 29 33 4 -4 5 2 3 13 -2 12 2 19 10 17
15 -3 16 10 0 26 -8 8 -5 14 15 21 17 7 25 16 21 25 -7 17 54 118 67 110 5 -3
9 4 9 14 0 11 8 23 17 26 14 6 15 9 4 15 -10 6 -9 10 4 15 10 4 15 12 11 22
-3 8 -2 12 4 9 6 -3 10 1 10 10 0 9 5 13 10 10 6 -4 10 -3 9 2 -5 30 3 51 23
56 16 5 19 9 10 19 -12 15 9 53 23 40 5 -4 5 1 2 11 -4 11 -1 20 7 23 7 3 13
11 14 19 1 8 3 22 4 30 1 8 5 12 10 9 4 -3 8 2 8 10 0 9 4 16 9 16 4 0 8 12 7
28 0 16 5 26 11 25 7 -2 10 4 7 12 -4 8 -1 15 6 15 6 0 8 4 5 10 -3 5 6 30 19
55 14 25 25 49 25 53 -1 4 -1 14 0 22 1 12 3 12 10 2 6 -10 10 -9 14 7 3 14 1
19 -6 15 -7 -3 -5 0 4 8 9 7 14 18 12 25 -2 6 1 14 6 18 6 3 11 12 11 20 0 8
5 26 12 42 7 15 12 33 13 38 3 28 18 55 27 49 6 -4 8 1 4 12 -3 11 6 43 23 77
16 32 23 57 17 57 -6 0 -3 5 6 11 10 5 15 16 12 24 -4 8 -2 15 2 15 5 0 10 16
12 36 1 19 9 48 17 65 9 16 13 29 9 29 -4 0 0 8 7 17 12 15 12 16 -1 8 -13 -8
-13 -6 -2 8 8 9 11 21 7 27 -3 5 0 12 7 15 8 3 13 20 12 45 0 21 3 37 8 34 8
-5 12 9 8 39 -1 10 7 28 17 39 12 14 14 22 6 25 -9 3 -8 12 1 36 7 18 12 39
11 47 -1 8 3 21 8 27 5 7 6 20 3 29 -4 9 -2 22 4 29 6 7 10 17 9 21 -1 5 0 11
1 14 4 10 10 46 12 73 1 15 5 27 8 27 3 0 5 22 4 50 0 27 3 50 7 50 4 0 6 11
4 25 -1 14 1 25 5 25 4 0 10 9 13 20 3 11 1 18 -4 14 -5 -3 -9 1 -9 10 0 8 6
17 13 19 9 4 8 6 -2 6 -9 1 -10 5 -4 14 6 6 13 21 16 32 l7 20 -16 -20 -17
-20 8 20 c5 11 8 32 8 47 0 15 3 26 6 24 9 -6 5 60 -5 75 -5 8 -2 11 8 7 8 -4
15 0 15 8 0 7 -4 11 -9 8 -4 -3 -5 10 -3 28 3 18 5 39 5 46 0 6 -1 20 -1 30
-1 9 1 32 4 50 4 21 1 32 -6 32 -8 0 -7 3 2 9 11 7 11 15 3 39 -8 24 -7 33 4
43 8 6 14 16 14 21 0 6 -7 4 -17 -3 -15 -13 -15 -12 -5 8 7 13 9 31 4 45 -11
33 -8 63 6 61 6 -2 9 4 6 12 -4 8 -10 12 -15 9 -12 -7 -11 3 1 27 8 14 7 19
-1 19 -8 0 -8 4 1 15 8 9 9 20 3 28 -5 6 -8 44 -7 82 1 39 -2 75 -7 81 -5 6
-7 18 -3 27 3 8 1 18 -5 21 -5 4 -7 26 -5 51 4 30 1 45 -6 45 -7 0 -5 7 4 16
9 8 16 21 15 27 0 9 -2 8 -6 0 -2 -7 -8 -13 -11 -13 -8 0 -8 58 0 66 8 7 -15
54 -26 54 -5 0 -2 8 5 17 12 14 12 16 0 8 -11 -6 -12 -5 -5 6 10 17 6 52 -9
61 -6 3 -10 21 -10 40 0 18 -6 42 -13 53 -8 11 -14 32 -14 47 0 15 -5 30 -10
33 -8 5 -7 11 1 21 7 9 8 14 3 13 -21 -4 -28 2 -14 12 11 7 12 12 3 15 -7 3
-9 12 -6 21 4 11 3 14 -6 9 -8 -5 -10 0 -7 18 3 14 2 26 -2 26 -4 0 -12 11
-19 25 -9 20 -8 25 3 25 18 0 12 43 -7 48 -11 3 -11 1 1 -7 10 -7 11 -11 3
-11 -7 0 -17 9 -23 21 -15 27 -9 65 10 61 8 -2 11 0 7 5 -5 4 -14 8 -20 8 -7
0 -11 13 -10 29 2 24 0 26 -14 14 -10 -8 -14 -8 -10 -1 4 6 3 14 -3 18 -6 3
-8 17 -6 31 3 13 1 22 -3 19 -5 -2 -11 6 -13 20 -3 14 -1 25 6 25 6 0 0 7 -12
16 -21 15 -32 42 -12 29 6 -3 10 -2 10 3 0 6 -7 13 -16 16 -9 4 -14 9 -11 13
4 3 2 12 -5 20 -6 7 -8 16 -4 20 3 3 -1 15 -11 25 -9 11 -11 18 -5 18 7 0 12
4 12 10 0 5 -6 7 -14 4 -10 -4 -13 3 -10 24 2 20 -2 32 -11 36 -8 3 -15 14
-15 24 0 10 -3 22 -7 26 -5 4 -8 11 -9 14 0 4 -4 16 -9 27 -4 11 -18 49 -31
85 -14 36 -31 79 -39 95 -23 50 -71 156 -105 235 -160 368 -429 808 -689 1125
-169 207 -408 454 -601 621 -446 386 -959 691 -1500 892 -182 67 -175 66 -196
45 -16 -16 -17 -16 -12 -1 4 10 1 19 -9 22 -11 5 -14 2 -9 -11 6 -14 4 -14
-15 3 l-22 19 18 -27 c16 -26 16 -28 1 -28 -10 0 -15 3 -13 8 3 4 -1 13 -9 20
-8 7 -14 8 -14 3 0 -5 -14 -20 -32 -32 -26 -19 -31 -20 -25 -5 5 12 3 15 -5
10 -18 -11 -60 -6 -142 16 -209 55 -610 121 -856 139 -143 11 -464 19 -565 14z
m223 -320 c22 -19 62 -136 83 -241 14 -72 8 -271 -11 -362 -14 -64 -47 -186
-59 -215 -25 -59 -86 -170 -102 -186 -11 -11 -19 -25 -19 -33 0 -8 -5 -18 -12
-22 -7 -4 -8 -3 -4 4 4 7 4 18 -1 25 -4 6 -8 14 -9 17 -1 8 -15 39 -45 108
-53 118 -203 326 -308 426 -37 36 -37 39 -11 -136 32 -216 27 -291 -35 -518
-13 -47 -26 -96 -30 -110 -3 -14 -36 -119 -74 -235 -107 -329 -115 -356 -116
-417 0 -31 -3 -51 -7 -45 -4 7 -8 8 -8 3 0 -4 -14 7 -30 25 -50 56 -55 63 -52
71 1 5 -2 8 -7 8 -5 0 -12 17 -16 38 -4 20 -11 42 -17 49 -5 7 -7 17 -4 22 4
5 2 12 -4 16 -5 3 -10 15 -10 26 0 13 -4 18 -12 13 -6 -4 -8 -3 -5 3 4 6 -5
44 -19 84 -23 69 -36 156 -50 339 -3 41 -10 81 -16 87 -6 7 -14 48 -19 91 -23
208 -125 437 -277 622 -25 30 -83 93 -128 140 -49 49 -80 90 -76 96 8 13 99
41 287 88 247 61 451 96 685 116 69 5 141 12 160 14 19 1 108 4 196 4 141 2
164 0 182 -15z m342 -3 c324 -29 702 -109 1013 -216 151 -51 167 -65 203 -178
23 -70 26 -97 25 -198 -1 -138 -21 -258 -57 -360 -30 -83 -79 -184 -93 -193
-19 -11 -52 20 -98 90 -26 39 -50 72 -55 73 -4 2 -8 10 -8 18 0 8 -4 14 -10
14 -5 0 -10 5 -10 10 0 6 -8 18 -17 28 -10 10 -49 55 -87 100 -38 46 -84 93
-101 107 -32 24 -32 24 -29 2 35 -219 37 -333 8 -467 -8 -36 -46 -166 -86
-289 -82 -254 -94 -272 -147 -229 -16 12 -38 39 -48 58 -10 19 -23 40 -30 45
-7 6 -24 44 -38 85 -29 83 -30 90 -40 175 -4 32 -9 67 -10 77 -2 10 -6 46 -10
79 -3 34 -8 65 -11 70 -2 5 -7 25 -10 45 -2 21 -9 43 -15 51 -6 7 -9 19 -6 27
3 7 0 19 -6 25 -6 6 -12 21 -14 33 -2 13 -11 50 -19 83 -9 33 -19 70 -21 83
-3 12 -9 22 -14 22 -5 0 -6 6 -3 14 3 8 0 17 -5 21 -6 3 -9 11 -6 16 4 5 3 15
-2 22 -4 6 -8 15 -9 20 -1 4 -3 9 -4 12 -1 3 -3 8 -4 13 -1 4 -10 24 -19 46
-9 21 -17 40 -17 43 0 2 -20 45 -45 94 -58 115 -124 212 -224 332 -45 52 -81
97 -81 101 0 9 131 7 260 -4z m-1842 -303 c62 -165 67 -192 66 -342 0 -109 -5
-160 -23 -230 -22 -89 -97 -255 -148 -327 l-26 -37 -22 64 c-30 84 -82 177
-155 273 -71 94 -192 220 -197 205 -2 -6 3 -51 12 -100 9 -48 18 -136 22 -194
8 -138 -3 -185 -129 -569 -109 -333 -125 -413 -106 -540 6 -36 10 -77 11 -92
0 -16 4 -28 9 -28 5 0 6 -4 3 -10 -3 -5 3 -40 14 -77 11 -38 22 -81 24 -98 11
-71 36 -174 50 -207 l15 -36 -66 -4 c-37 -3 -193 -5 -346 -7 -154 -1 -282 -4
-285 -6 -2 -3 9 -26 26 -52 17 -27 55 -88 86 -137 31 -49 54 -92 52 -97 -3 -4
-1 -10 3 -13 5 -3 5 -31 0 -63 -5 -32 -7 -83 -3 -113 3 -30 8 -81 11 -112 4
-32 3 -65 -1 -75 -5 -10 -8 -21 -7 -24 1 -4 -7 -5 -18 -2 -11 3 -22 18 -26 37
-22 104 -90 268 -134 323 l-18 23 -23 -63 c-41 -113 -98 -229 -153 -311 -52
-77 -180 -226 -194 -226 -4 0 -27 32 -50 71 -60 97 -205 298 -326 453 l-101
129 -7 -74 c-3 -41 -11 -142 -17 -226 -14 -178 -51 -427 -81 -532 -60 -212
-124 -266 -420 -356 -192 -58 -270 -96 -336 -160 -38 -38 -54 -64 -66 -105
l-16 -55 -2 70 c-1 39 -3 88 -3 110 -1 44 12 248 18 286 2 13 6 47 10 74 46
368 114 648 246 1003 226 609 546 1108 1014 1578 354 356 703 611 1140 834
244 124 597 266 630 254 7 -3 26 -42 43 -87z m3223 -63 c19 -10 41 -23 49 -30
8 -7 20 -13 25 -14 11 -1 135 -64 202 -101 117 -66 143 -83 143 -91 0 -4 7 -8
15 -8 8 0 15 -4 15 -9 0 -5 9 -13 20 -16 11 -4 46 -29 77 -55 30 -27 64 -52
74 -55 11 -4 19 -12 19 -18 0 -7 20 -30 45 -51 24 -22 42 -43 39 -48 -3 -5 6
-22 20 -39 28 -33 33 -49 15 -49 -14 0 -39 -26 -39 -40 0 -7 -8 -10 -20 -7
-23 6 -59 -22 -52 -41 3 -9 -4 -11 -22 -8 -15 3 -24 1 -21 -3 2 -5 -2 -14 -10
-21 -8 -7 -15 -9 -15 -5 0 4 -6 2 -13 -4 -8 -6 -16 -8 -20 -5 -3 3 -8 -4 -12
-17 -6 -16 -9 -18 -16 -8 -5 8 -2 20 8 31 9 10 11 18 5 18 -6 0 -13 -6 -16
-12 -4 -9 -8 -10 -11 -2 -3 6 -17 9 -30 6 -17 -3 -25 0 -25 10 0 8 -9 24 -20
36 -12 12 -17 22 -13 22 4 0 0 7 -11 15 -10 7 -15 19 -11 24 3 6 -1 14 -9 17
-9 3 -16 13 -16 21 0 8 -4 12 -9 9 -5 -3 -21 13 -37 36 -16 23 -45 58 -64 78
-19 20 -51 63 -70 95 -59 99 -112 179 -124 190 -19 16 -90 107 -103 131 -6 13
-9 25 -5 28 7 8 4 8 43 -10z m-1436 -160 c43 -86 44 -116 9 -284 -68 -334
-181 -553 -404 -786 -107 -112 -132 -144 -177 -230 -34 -66 -59 -131 -73 -190
-29 -123 -92 -255 -126 -261 -20 -4 -64 101 -84 198 -40 191 -24 287 109 682
85 249 111 348 120 446 l6 74 28 -40 c41 -59 64 -128 78 -229 11 -84 7 -258
-7 -329 -5 -24 4 -15 44 42 266 381 372 636 389 932 l6 104 24 -29 c12 -16 39
-61 58 -100z m-1554 -194 c70 -118 73 -140 39 -277 -49 -201 -88 -301 -182
-460 -51 -86 -83 -124 -204 -244 -161 -158 -189 -200 -234 -349 -52 -175 -100
-280 -126 -280 -36 0 -95 198 -97 325 -1 111 12 163 110 440 88 247 123 372
123 438 0 26 3 47 8 47 4 0 17 -15 29 -33 67 -99 94 -239 75 -391 -6 -52 -14
-102 -18 -112 -10 -32 28 19 137 181 103 153 192 321 228 432 28 82 51 221 51
300 0 40 4 62 10 58 5 -3 28 -37 51 -75z m3044 -31 c42 -80 44 -114 15 -249
-43 -199 -113 -367 -220 -525 -33 -49 -91 -111 -178 -189 -143 -129 -174 -175
-212 -315 -36 -129 -81 -191 -143 -198 -29 -3 -34 1 -49 36 -10 22 -22 81 -29
131 -14 119 0 189 87 438 116 329 144 429 144 515 l0 41 31 -42 c81 -110 107
-320 63 -502 -13 -52 187 238 270 391 87 161 130 308 142 485 7 96 7 96 25 73
10 -13 34 -54 54 -90z m-1367 -737 c8 -83 -73 -276 -156 -370 -68 -76 -137
-178 -207 -302 -63 -113 -154 -230 -177 -230 -24 0 41 198 108 333 41 81 139
232 325 499 78 113 102 128 107 70z m-1540 -145 c8 -67 -88 -291 -143 -334
-48 -37 -140 -159 -194 -258 -40 -74 -133 -175 -161 -175 -17 0 -11 35 16 112
54 150 117 255 316 523 96 130 127 165 143 163 14 -2 21 -12 23 -31z m2996
-53 c-1 -41 -11 -85 -34 -143 -27 -69 -43 -94 -95 -147 -35 -34 -94 -109 -131
-166 -101 -153 -192 -254 -211 -235 -20 21 85 250 178 389 105 156 270 369
282 365 8 -2 12 -26 11 -63z m-1416 -221 c11 -111 -205 -495 -309 -550 -90
-49 -84 -26 55 184 46 71 117 190 156 266 40 76 77 136 84 134 6 -2 12 -17 14
-34z m-1566 -129 c-6 -74 -107 -259 -201 -365 -39 -44 -95 -78 -108 -66 -3 4
39 73 94 154 55 82 121 187 148 236 27 48 54 86 59 84 6 -2 10 -22 8 -43z
m3011 -30 c-3 -52 -69 -180 -142 -278 -60 -80 -108 -120 -136 -114 -12 2 5 34
67 124 46 67 108 164 138 217 30 53 60 95 65 93 6 -2 9 -21 8 -42z m-3115
-825 c23 -39 40 -74 37 -80 -4 -5 -18 -9 -33 -9 -15 0 -48 -7 -75 -15 -38 -11
-144 -14 -555 -16 -279 -1 -515 2 -525 6 -10 4 -45 48 -78 96 l-60 89 623 0
623 -1 43 -70z m3498 58 c-10 -7 -51 -36 -90 -64 -39 -29 -96 -65 -126 -80
l-55 -28 -385 -6 c-422 -6 -413 -5 -564 -74 -88 -40 -111 -44 -104 -17 3 10
43 78 89 150 l84 132 585 -1 c457 0 581 -3 566 -12z m-1356 -12 c-7 -8 -28
-17 -49 -20 -51 -8 -113 -38 -178 -86 -30 -23 -76 -51 -101 -62 -46 -22 -56
-22 -672 -25 -604 -3 -788 3 -857 29 -17 6 -84 94 -127 167 -6 9 196 12 995
12 881 0 1000 -2 989 -15z m-2108 -504 l27 -6 -27 -40 c-19 -28 -46 -49 -91
-71 l-63 -32 -272 -5 c-197 -4 -290 -9 -341 -21 -38 -9 -71 -16 -72 -16 -1 0
-13 38 -28 85 -14 47 -28 92 -31 100 -5 13 48 15 432 14 242 -1 451 -4 466 -8z
m3023 -3 c3 -3 -5 -24 -19 -46 -18 -30 -42 -48 -88 -70 l-63 -31 -310 -5
c-170 -3 -321 -8 -335 -11 -27 -7 -32 4 -75 153 l-7 23 445 -3 c245 -2 448 -6
452 -10z m-5285 -110 c30 -46 89 -141 132 -213 89 -149 106 -175 117 -175 26
0 229 213 325 341 l46 61 0 -97 c0 -346 -129 -667 -392 -980 l-85 -100 -194 1
c-274 2 -500 34 -770 110 -158 45 -156 44 -139 83 21 52 64 79 188 117 284 87
390 136 482 220 113 105 173 277 211 607 6 59 15 107 18 107 3 0 31 -37 61
-82z m6889 -223 c48 -237 124 -369 266 -464 83 -55 180 -95 370 -152 170 -51
197 -66 213 -114 7 -21 9 -42 5 -46 -13 -13 -249 -78 -378 -104 -174 -35 -345
-54 -551 -62 l-180 -6 -70 79 c-207 236 -321 450 -379 709 -16 68 -34 405 -22
405 3 0 32 -35 64 -77 32 -43 118 -138 190 -213 l133 -135 70 120 c39 66 106
172 148 237 l77 116 16 -116 c9 -65 22 -144 28 -177z m-3049 244 c-25 -21 -76
-58 -115 -82 l-70 -42 -375 -5 c-310 -4 -377 -3 -387 9 -7 7 -23 47 -37 87
l-25 74 527 0 527 -1 -45 -40z m-2870 -84 c0 -8 11 -17 25 -21 14 -3 25 -10
25 -16 0 -5 4 -7 10 -3 10 6 55 -40 78 -82 37 -69 50 -98 45 -106 -2 -4 1 -14
7 -22 7 -8 10 -24 7 -36 -3 -12 -2 -32 3 -45 7 -16 6 -24 -1 -24 -8 0 -9 -11
-5 -31 3 -18 2 -37 -3 -43 -13 -16 -20 -66 -9 -66 5 0 6 -5 3 -10 -4 -6 -11
-8 -16 -5 -5 4 -9 -4 -9 -17 0 -13 -9 -31 -20 -41 -11 -9 -20 -14 -20 -11 0 3
-8 -2 -17 -12 -11 -11 -18 -13 -21 -5 -2 6 -11 11 -19 11 -12 0 -15 8 -10 40
3 22 1 40 -3 40 -15 0 -31 67 -24 95 5 19 3 26 -4 21 -7 -4 -13 11 -17 41 -4
27 -12 72 -20 102 -7 29 -12 71 -11 92 1 21 -1 39 -5 39 -3 0 -2 21 3 48 5 26
10 57 10 69 1 24 18 22 18 -2z m655 -377 c-9 -172 -9 -264 3 -493 6 -115 18
-343 27 -505 8 -162 28 -812 45 -1445 16 -632 31 -1191 34 -1242 4 -90 4 -93
-27 -140 l-32 -48 -3 35 c-1 19 -27 494 -57 1055 -30 561 -57 1054 -59 1095
-3 41 -8 113 -11 160 -11 180 -85 1563 -85 1600 l0 40 86 0 85 0 -6 -112z
m343 48 c3 -60 -13 -108 -57 -166 -18 -24 -18 -39 -4 -455 8 -236 15 -716 16
-1065 1 -558 -2 -677 -22 -985 -14 -213 -25 -507 -28 -752 l-6 -402 -23 -22
-24 -22 0 31 c0 18 -5 256 -10 530 -13 640 -50 3011 -50 3216 l0 157 103 -3
102 -3 3 -59z m260 58 c41 -11 24 -97 -37 -191 l-38 -58 -42 -665 c-23 -366
-44 -672 -46 -680 -5 -21 3 412 21 1035 7 286 14 530 14 543 0 20 5 22 53 22
28 0 62 -3 75 -6z m2432 -85 c0 -63 -5 -101 -16 -125 -15 -31 -15 -56 0 -301
52 -877 54 -918 92 -2343 15 -553 24 -1017 21 -1030 -6 -23 -44 -57 -53 -47
-2 2 -49 829 -104 1838 -55 1009 -103 1892 -108 1962 -4 71 -5 130 -3 133 2 2
42 4 88 4 l83 0 0 -91z m318 85 c41 -12 26 -102 -34 -199 l-31 -50 12 -415
c27 -898 29 -1015 27 -1285 -1 -154 -9 -401 -17 -550 -30 -556 -35 -679 -36
-1024 -1 -347 -2 -354 -23 -375 l-21 -21 -7 100 c-4 55 -19 903 -33 1885 -14
982 -28 1815 -31 1852 -4 36 -3 71 0 77 8 12 154 15 194 5z m254 0 c33 -6 37
-9 33 -33 -2 -14 -7 -42 -10 -61 -3 -20 -21 -60 -41 -90 l-36 -55 -23 -340
c-13 -187 -31 -467 -41 -622 -10 -155 -19 -281 -21 -279 -4 4 26 1213 33 1374
l6 112 31 0 c18 0 49 -3 69 -6z m-2154 -90 l52 -7 0 -74 c0 -63 -4 -83 -27
-123 l-27 -48 12 -189 c7 -103 12 -221 12 -260 l0 -73 -37 0 c-84 0 -78 -16
-91 238 -7 125 -18 294 -24 375 -15 182 -18 178 130 161z m415 -11 c18 -11
-10 -83 -58 -153 l-52 -75 -7 -220 c-3 -121 -9 -246 -12 -277 l-6 -58 -43 0
-42 0 -6 302 c-4 166 -7 346 -7 401 l0 99 113 -7 c61 -4 116 -9 120 -12z m285
1 c10 -3 12 -14 7 -36 -9 -47 -43 -138 -65 -173 -13 -22 -19 -61 -24 -150 -7
-129 -24 -329 -32 -382 -4 -25 -10 -33 -26 -33 l-21 0 7 387 c4 213 10 391 13
395 4 8 111 2 141 -8z m1890 -786 c559 -108 786 -133 1142 -125 146 3 304 12
370 22 145 20 380 68 485 98 l81 23 -8 -70 c-19 -161 -92 -534 -134 -683 -19
-65 -76 -119 -181 -169 -274 -132 -742 -146 -1468 -43 -244 34 -580 91 -588
99 -5 4 1 185 12 401 21 398 31 536 38 509 3 -11 67 -27 251 -62z m-3190 -7
c219 -77 448 -130 682 -158 321 -37 719 11 1085 132 72 24 132 41 135 39 6 -7
52 -865 46 -880 -16 -41 -471 -164 -726 -196 -137 -17 -527 -17 -645 1 -210
31 -406 77 -602 143 -97 32 -123 45 -123 59 0 39 40 759 46 839 4 47 9 78 11
69 3 -11 36 -28 91 -48z m-1124 17 c11 -73 47 -851 39 -859 -17 -17 -635 -112
-943 -144 -241 -26 -561 -30 -722 -11 -234 29 -409 89 -506 174 -49 42 -50 47
-108 312 -38 175 -84 454 -84 508 0 17 4 32 8 32 5 0 69 -16 143 -35 145 -38
353 -77 519 -97 161 -20 612 -17 785 5 181 23 523 80 695 117 175 36 168 37
174 -2z m6640 -1130 c-199 -694 -544 -1326 -1020 -1868 -112 -128 -377 -388
-499 -491 -666 -558 -1438 -918 -2285 -1063 -307 -53 -409 -61 -810 -61 -393
0 -498 8 -785 56 -685 115 -1326 370 -1885 750 -151 102 -327 236 -417 316
-41 36 -50 49 -42 60 6 7 16 10 22 6 5 -3 7 -1 4 4 -10 17 22 24 43 10 11 -6
20 -15 20 -19 0 -4 10 -7 23 -6 29 1 49 -4 65 -19 7 -7 22 -13 31 -13 10 0 24
-6 30 -14 7 -8 24 -17 39 -21 15 -4 29 -10 32 -13 8 -11 41 -31 80 -48 19 -9
37 -20 40 -24 3 -4 21 -15 40 -25 19 -10 37 -21 40 -25 19 -26 433 -243 640
-335 47 -20 119 -53 160 -72 143 -67 241 -102 363 -132 173 -43 572 -128 637
-136 30 -4 64 -9 75 -12 11 -2 90 -13 175 -24 188 -24 255 -39 445 -101 159
-52 225 -48 415 22 128 47 305 89 530 125 86 13 164 31 449 101 361 89 423
110 606 201 422 212 756 417 1010 622 335 270 682 633 885 926 19 28 38 52 41
55 6 4 174 262 206 315 72 120 120 207 214 392 62 120 118 225 125 234 8 8 14
19 14 24 0 15 72 123 138 206 34 44 62 84 62 89 0 6 4 10 8 10 5 0 15 11 22
25 23 42 30 28 14 -27z m-4816 -235 c5 -10 13 -133 16 -273 10 -361 35 -1210
45 -1500 5 -135 6 -260 4 -277 -3 -18 -17 -44 -31 -59 l-27 -26 -6 33 c-6 31
-15 167 -49 799 -68 1248 -69 1272 -55 1277 6 2 26 11 45 22 45 24 48 24 58 4z
m194 -30 c18 -2 38 -5 45 -7 43 -16 37 -505 -17 -1405 -11 -184 -20 -399 -20
-477 0 -119 -3 -145 -16 -159 -9 -9 -20 -13 -25 -8 -14 15 -48 2017 -35 2069
7 28 8 28 22 10 7 -11 28 -21 46 -23z m-1382 -2014 c-14 -11 -47 -39 -75 -62
-49 -42 -50 -42 -142 -45 -52 -2 -99 -2 -107 1 -10 4 -11 18 -3 66 l10 61 171
0 171 -1 -25 -20z m3035 12 c-6 -5 -39 -33 -75 -62 l-65 -54 -97 0 c-53 0 -99
3 -102 6 -3 3 -1 31 5 62 l12 57 165 0 c97 0 162 -4 157 -9z m-1495 -438 c7
-7 -66 -69 -119 -100 -40 -24 -59 -28 -148 -31 l-103 -4 0 48 c0 64 8 92 29
98 20 5 334 -5 341 -11z"/>
<path d="M9656 7092 c-11 -10 -6 -22 9 -22 8 0 15 -6 15 -14 0 -8 5 -16 11
-18 15 -5 -49 -295 -69 -315 -8 -8 -21 -12 -28 -9 -8 3 -14 -1 -14 -9 0 -8 7
-15 15 -15 8 0 14 -5 13 -12 -3 -13 108 -36 118 -25 3 3 -2 19 -11 35 -17 28
-17 34 0 127 9 53 21 93 25 88 5 -4 21 -60 37 -123 16 -64 37 -127 46 -140 17
-23 19 -24 30 -8 113 165 151 217 155 214 2 -2 -4 -45 -13 -95 -15 -81 -20
-92 -41 -97 -26 -7 -33 -24 -9 -24 8 0 14 -5 13 -12 -3 -11 140 -43 150 -33 2
2 -4 19 -13 39 -16 32 -16 43 0 148 24 166 31 188 60 188 14 0 25 5 25 10 0 6
-4 10 -9 10 -5 0 -11 9 -14 20 -4 15 -14 20 -40 20 -20 0 -42 2 -50 6 -12 4
-102 -111 -189 -240 -11 -17 -16 -5 -51 130 -43 163 -44 164 -76 164 -14 0
-40 4 -58 9 -17 5 -34 7 -37 3z"/>
<path d="M11452 7045 c-135 -59 -97 -211 64 -262 35 -11 62 -26 72 -41 14 -21
13 -25 -5 -50 -32 -44 -82 -42 -133 4 -22 20 -43 34 -47 30 -11 -11 16 -82 42
-106 53 -50 186 -15 221 58 18 39 13 81 -16 129 -24 41 -56 61 -120 78 -62 16
-80 30 -80 60 0 27 17 43 57 51 23 4 36 0 60 -20 40 -33 47 -33 40 4 -12 57
-35 80 -81 80 -22 -1 -56 -7 -74 -15z"/>
<path d="M10319 6977 c-85 -32 -134 -87 -151 -169 -35 -170 141 -320 310 -264
154 51 189 257 66 380 -54 54 -157 78 -225 53z m144 -67 c14 -11 31 -37 38
-57 15 -46 7 -148 -16 -197 -45 -95 -178 -85 -206 16 -14 53 -7 134 17 183 32
69 115 96 167 55z"/>
<path d="M11138 6967 c-76 -11 -138 -24 -138 -29 0 -4 9 -8 21 -8 11 0 17 -5
14 -10 -3 -6 0 -16 8 -24 15 -16 53 -298 42 -315 -3 -6 -15 -11 -26 -11 -23 0
-25 -16 -3 -37 14 -14 29 -14 166 2 141 17 150 20 159 42 12 32 12 73 -1 73
-5 0 -10 7 -10 15 0 26 -21 16 -31 -15 -12 -34 -61 -54 -119 -48 -33 3 -35 5
-43 52 -11 64 -5 76 37 76 45 0 66 -9 66 -27 0 -8 6 -13 13 -10 27 9 -4 157
-33 157 -6 0 -10 -9 -10 -20 0 -22 -28 -40 -63 -40 -26 0 -37 28 -37 90 0 25
4 28 51 34 47 6 54 5 78 -18 33 -31 41 -32 41 -6 0 22 -32 101 -40 99 -3 -1
-67 -11 -142 -22z"/>
<path d="M10630 6940 c0 -5 7 -10 16 -10 8 0 13 -4 9 -9 -3 -5 -1 -12 5 -16 6
-4 10 -66 10 -159 0 -157 -5 -176 -42 -176 -10 0 -18 -4 -18 -10 0 -5 12 -10
28 -10 20 0 23 -3 12 -10 -8 -5 -12 -11 -10 -14 6 -6 154 -11 157 -5 7 12 -11
49 -23 49 -17 0 -19 81 -3 111 14 26 28 14 67 -54 39 -68 81 -107 127 -117 45
-10 70 -3 55 15 -5 6 -7 14 -4 18 3 3 -8 13 -25 21 -18 10 -44 41 -66 77 l-36
62 36 32 c29 27 35 39 35 74 0 54 -34 106 -83 126 -43 17 -247 22 -247 5z"/>
<path d="M8250 7024 c-72 -31 -103 -88 -81 -146 17 -45 74 -94 127 -108 71
-19 94 -35 94 -69 0 -67 -77 -82 -139 -26 -45 41 -51 42 -51 14 0 -25 16 -57
43 -86 40 -45 170 -20 211 39 34 48 7 155 -46 190 -13 9 -52 24 -86 33 -34 10
-67 24 -73 31 -17 21 -3 59 26 72 38 18 57 15 87 -13 15 -14 30 -25 34 -25 11
0 -4 58 -22 85 -19 30 -68 33 -124 9z"/>
<path d="M6806 6992 c-15 -10 -75 -83 -132 -164 -58 -82 -111 -149 -117 -149
-7 -1 -20 -1 -29 0 -22 3 -24 -17 -3 -25 8 -4 13 -10 10 -15 -5 -7 16 -15 98
-35 17 -4 27 -2 27 5 0 6 -4 11 -8 11 -16 0 -7 46 16 83 26 41 30 42 85 26 34
-9 37 -13 39 -49 0 -22 1 -46 2 -52 1 -7 -9 -14 -21 -16 -23 -3 -33 -22 -12
-22 7 0 17 -6 23 -13 13 -16 135 -51 144 -42 4 3 2 9 -3 13 -27 19 -38 67 -51
233 -9 99 -21 190 -28 203 -12 23 -13 24 -40 8z"/>
<path d="M8048 6964 c-5 -5 -136 -32 -230 -49 -40 -6 -53 -25 -18 -25 13 0 18
-5 14 -15 -4 -9 0 -15 10 -15 9 0 16 -2 16 -4 0 -2 11 -57 24 -122 40 -201 39
-183 11 -196 -31 -14 -32 -28 -2 -28 17 0 19 -2 7 -10 -8 -5 -12 -11 -9 -14 6
-6 292 48 308 59 14 8 14 85 1 85 -5 0 -10 9 -10 20 0 32 -14 23 -31 -19 -15
-36 -22 -40 -71 -51 -31 -7 -61 -11 -69 -8 -7 2 -19 30 -25 62 -11 56 -11 58
13 67 39 14 64 11 84 -13 27 -31 32 -18 19 48 -18 87 -45 122 -52 67 -2 -23
-10 -29 -42 -36 -28 -7 -40 -6 -46 3 -10 16 -23 100 -17 107 3 2 30 7 61 10
49 5 59 3 75 -16 10 -11 21 -21 25 -21 13 0 5 42 -14 80 -21 42 -23 44 -32 34z"/>
<path d="M7020 6929 c0 -6 7 -17 15 -25 20 -20 18 -62 -8 -214 -22 -123 -22
-125 -49 -128 -33 -4 -34 -6 -7 -33 18 -18 98 -39 151 -39 19 0 13 39 -7 46
-9 4 -10 20 -3 62 15 93 31 95 63 9 36 -96 100 -157 165 -157 28 0 25 14 -11
51 -31 32 -79 126 -79 155 0 8 11 19 24 24 82 31 70 170 -18 213 -32 15 -88
26 -198 41 -22 3 -38 1 -38 -5z"/>
<path d="M7723 6909 c-7 -7 -72 -12 -181 -13 l-171 -1 -12 -42 c-9 -36 -9 -44
4 -58 20 -20 24 -19 50 9 12 13 38 26 58 29 l37 5 6 -45 c3 -25 6 -99 6 -163
l0 -117 -30 -6 c-34 -7 -41 -27 -9 -27 11 0 17 -4 14 -10 -4 -6 27 -10 84 -10
54 0 91 4 91 10 0 6 -8 10 -17 11 -11 0 -13 3 -5 6 18 7 15 20 -6 25 -24 7
-32 61 -32 214 l0 114 47 0 c39 0 51 -5 70 -27 13 -14 25 -24 27 -22 8 10 13
89 5 89 -5 0 -9 9 -9 20 0 22 -10 26 -27 9z"/>
<path d="M5060 7060 c-48 -12 -100 -70 -100 -113 0 -54 47 -110 124 -146 73
-35 94 -60 77 -97 -25 -56 -103 -48 -154 17 -22 28 -27 31 -32 17 -10 -26 13
-85 42 -108 33 -26 114 -27 163 -2 103 51 84 193 -35 249 -93 44 -100 49 -103
70 -4 29 31 63 65 63 17 0 39 -12 60 -32 18 -17 36 -29 39 -25 4 4 -1 27 -11
52 -23 62 -53 74 -135 55z"/>
<path d="M3430 7016 c0 -4 11 -18 24 -32 16 -18 39 -81 76 -207 29 -102 60
-190 71 -201 18 -19 18 -19 36 13 121 220 183 317 212 331 30 15 41 30 21 30
-5 0 -10 6 -10 14 0 9 -20 15 -62 20 -68 7 -81 3 -53 -18 12 -8 16 -19 11 -31
-11 -29 -118 -217 -121 -213 -10 10 -65 220 -60 228 3 6 14 10 23 10 15 1 16
2 1 13 -9 7 -14 18 -12 25 3 8 -5 12 -24 12 -15 0 -52 3 -80 6 -29 4 -53 4
-53 0z"/>
<path d="M4740 7005 c-47 -7 -104 -14 -127 -14 -48 -1 -65 -17 -31 -30 13 -6
19 -10 13 -11 -5 0 -4 -4 4 -9 9 -6 20 -55 32 -143 25 -180 25 -186 -6 -194
-33 -8 -32 -24 3 -24 20 0 23 -3 12 -10 -8 -5 -12 -11 -10 -14 7 -6 293 33
301 42 14 14 22 82 10 82 -6 0 -11 9 -11 20 0 28 -18 25 -26 -4 -10 -41 -37
-57 -100 -59 l-59 -2 -9 58 c-8 47 -7 60 5 68 25 16 74 10 89 -11 8 -11 19
-20 24 -20 13 0 -1 102 -19 136 -15 29 -14 29 -29 -20 -4 -13 -75 -30 -85 -21
-11 11 -17 105 -7 115 5 5 33 10 61 10 39 0 56 -5 70 -20 25 -28 38 -25 31 8
-11 44 -30 82 -41 81 -5 -1 -48 -7 -95 -14z"/>
<path d="M3903 6957 c-2 -4 6 -11 19 -16 13 -6 19 -10 13 -11 -5 0 -4 -4 4 -9
11 -7 12 -38 5 -172 -9 -159 -10 -164 -31 -167 -22 -3 -33 -22 -13 -22 6 0 10
-6 10 -14 0 -10 20 -15 78 -18 42 -3 81 -1 87 4 5 5 2 8 -8 8 -10 0 -14 5 -11
14 3 7 -2 16 -10 19 -14 5 -15 26 -9 149 6 153 14 188 38 188 8 0 15 5 15 10
0 6 -4 10 -10 10 -5 0 -7 6 -4 14 5 12 -11 15 -81 18 -48 2 -89 0 -92 -5z"/>
<path d="M4213 6962 c-70 -8 -86 -17 -52 -31 13 -5 20 -10 14 -11 -5 0 -4 -4
4 -9 11 -7 16 -48 22 -162 8 -155 4 -179 -27 -179 -8 0 -14 -4 -14 -10 0 -5
12 -10 28 -10 20 0 23 -3 12 -10 -8 -5 -12 -11 -10 -13 10 -7 160 6 160 14 0
5 -8 9 -17 10 -11 0 -13 3 -5 6 18 7 15 20 -8 26 -17 4 -20 14 -20 66 0 83 21
82 78 -4 24 -36 59 -74 77 -85 34 -21 115 -28 115 -10 0 6 -4 10 -10 10 -5 0
-7 6 -5 13 3 6 -10 19 -27 27 -17 8 -50 41 -71 72 l-40 57 31 29 c25 23 32 38
32 66 0 49 -32 109 -65 124 -35 16 -123 22 -202 14z"/>
<path d="M12223 11845 c-3 -10 4 -37 16 -61 25 -52 26 -72 6 -101 -16 -23
-578 -502 -633 -539 -45 -31 -60 -30 -110 6 -47 34 -64 37 -82 15 -10 -12 -5
-24 31 -67 24 -29 47 -54 52 -56 4 -2 7 -10 7 -18 0 -8 4 -14 9 -14 16 0 176
-200 176 -219 0 -11 9 -31 20 -45 16 -21 26 -25 45 -21 56 14 67 56 26 100
-23 25 -24 27 -8 47 43 52 163 163 224 206 10 8 31 25 46 39 15 14 47 42 72
62 25 20 50 41 55 47 21 22 143 124 148 124 4 0 21 14 38 31 18 17 48 38 67
46 31 13 38 12 78 -6 60 -29 79 -27 96 9 l15 31 -71 72 c-40 40 -118 128 -175
197 -102 123 -135 148 -148 115z"/>
<path d="M12700 11305 c-11 -13 -11 -26 0 -71 12 -49 11 -59 -4 -91 -17 -37
-469 -637 -584 -776 -58 -70 -64 -81 -58 -110 4 -17 7 -44 8 -59 1 -15 4 -26
6 -23 3 2 17 -4 32 -15 15 -11 29 -18 31 -16 2 2 35 7 74 11 38 4 72 8 75 10
5 3 42 9 120 21 19 3 42 7 50 9 8 2 38 7 65 10 28 3 61 8 75 10 14 3 45 7 70
10 25 3 83 12 130 19 47 8 92 14 100 15 8 0 51 4 95 8 44 5 116 8 161 8 73 0
84 -3 117 -27 19 -16 47 -28 60 -28 44 0 71 52 47 90 -5 8 -10 11 -10 6 0 -23
-62 60 -124 168 -38 65 -75 120 -83 123 -8 3 -22 -1 -30 -10 -13 -12 -14 -21
-4 -48 18 -52 14 -66 -21 -78 -66 -20 -598 -111 -653 -111 -32 0 -36 2 -25 15
7 8 17 15 23 15 14 0 118 79 140 107 10 13 24 29 31 36 6 6 32 39 56 72 24 33
56 72 71 86 15 15 26 29 23 31 -2 3 11 20 29 40 17 19 32 39 33 44 0 4 13 17
27 28 23 17 31 18 63 8 44 -13 80 -2 89 29 7 22 -12 72 -25 64 -9 -5 -99 132
-175 265 -70 123 -81 134 -105 105z"/>
<path d="M2421 11269 c-24 -5 -45 -10 -46 -11 -1 -2 103 -167 231 -368 129
-201 248 -391 265 -423 35 -66 34 -104 -3 -144 l-21 -23 23 -25 c44 -46 60
-35 188 137 68 90 73 100 66 133 -3 19 -10 38 -15 41 -5 3 -30 -13 -56 -35
-25 -23 -51 -41 -57 -42 -6 0 -19 -2 -28 -4 -25 -5 -44 21 -29 39 9 10 -2 33
-48 103 -70 107 -87 138 -72 129 19 -12 46 11 104 87 32 41 65 78 73 81 27 10
67 6 129 -13 36 -11 68 -16 80 -11 51 19 85 -30 50 -76 -20 -26 -19 -48 5 -69
37 -34 61 -14 194 162 119 158 126 170 121 203 -4 19 -9 38 -12 43 -2 4 -30
-15 -61 -43 -30 -27 -75 -57 -100 -67 -41 -15 -47 -15 -100 2 -31 10 -66 19
-77 21 -11 1 -21 3 -22 4 -3 3 -6 4 -48 14 -16 5 -55 16 -85 26 -30 10 -71 21
-90 24 -19 3 -62 15 -95 26 -33 11 -76 23 -95 26 -19 3 -39 9 -45 12 -13 8
-14 8 -105 26 -106 20 -168 24 -219 15z m260 -184 c41 -14 83 -26 94 -25 11 0
35 0 54 0 36 1 71 -23 71 -50 0 -35 -139 -200 -168 -200 -11 0 -46 43 -49 59
-1 8 2 22 7 31 7 12 -4 36 -41 91 -28 41 -59 91 -70 112 l-20 38 24 -15 c13
-9 57 -27 98 -41z"/>
<path d="M2117 10488 c-6 -4 -24 -8 -40 -8 -15 0 -35 -4 -45 -9 -9 -5 -55 -28
-102 -50 -58 -26 -104 -57 -142 -93 -60 -58 -134 -166 -161 -236 -17 -43 -21
-113 -9 -145 7 -15 10 -16 26 -4 15 11 16 17 7 35 -13 25 -6 48 19 55 10 2 37
34 60 71 81 127 173 186 306 194 96 5 148 -5 285 -55 84 -31 113 -48 159 -90
148 -136 176 -332 72 -498 -59 -95 -109 -108 -227 -57 -44 18 -121 51 -170 72
-50 21 -122 53 -160 70 -39 18 -104 46 -145 62 -41 16 -79 33 -85 38 -5 4 -26
13 -47 19 -20 7 -47 22 -60 35 -28 29 -64 20 -74 -18 -3 -14 -37 -52 -75 -86
-91 -81 -98 -95 -65 -128 l25 -26 56 29 c72 36 62 39 403 -122 328 -154 351
-164 371 -161 57 8 82 -37 62 -111 -11 -42 -10 -46 12 -69 20 -20 28 -22 45
-13 26 14 241 449 285 576 27 79 31 103 31 195 0 170 -49 318 -139 418 -43 48
-47 50 -75 39 -25 -9 -35 -8 -70 12 -23 13 -44 20 -47 17 -4 -3 -16 0 -27 7
-47 31 -227 55 -259 35z"/>
<path d="M13382 10091 c-10 -6 -12 -22 -7 -63 7 -52 6 -56 -23 -80 -17 -14
-81 -44 -144 -66 -62 -22 -233 -84 -380 -136 -147 -53 -280 -96 -296 -96 -33
0 -46 12 -82 78 -29 52 -38 58 -65 38 -18 -13 -18 -15 9 -87 164 -437 267
-740 259 -767 -3 -14 -1 -22 7 -22 9 0 9 -4 2 -13 -8 -10 -6 -13 11 -15 54 -6
217 -4 233 3 11 4 24 9 29 10 24 3 45 18 45 31 0 8 4 14 9 14 12 0 5 38 -10
56 -6 8 -15 12 -19 9 -4 -3 -10 2 -14 10 -3 9 -18 15 -39 15 -51 0 -133 28
-167 56 -36 31 -64 80 -54 96 4 6 3 8 -3 5 -6 -4 -13 2 -16 13 -3 10 0 21 5
22 6 2 5 10 -4 19 -8 8 -13 23 -11 34 2 11 5 30 6 42 1 13 5 23 10 23 4 0 7 5
7 11 0 6 6 16 13 24 18 18 125 66 177 80 31 9 134 58 141 68 8 11 62 -135 62
-168 0 -31 -16 -51 -66 -82 -35 -22 -37 -26 -31 -61 10 -59 24 -68 86 -54 68
16 69 16 96 30 12 7 22 10 22 6 0 -3 6 -2 13 4 7 6 32 14 55 18 23 4 42 10 42
14 0 6 36 20 49 19 8 -1 29 59 27 75 -1 8 -13 23 -26 34 -20 16 -35 19 -81 15
-48 -5 -59 -3 -76 16 -28 30 -46 93 -30 103 9 6 8 8 -2 8 -11 0 -9 5 5 22 12
13 13 18 4 13 -13 -8 -13 -7 -1 9 16 19 61 44 88 49 10 2 28 9 41 15 12 7 22
10 22 6 0 -3 6 -2 13 4 12 9 70 25 83 22 4 -1 10 2 13 7 9 12 62 45 66 41 2
-2 18 -41 34 -86 51 -139 40 -212 -43 -278 -31 -25 -36 -35 -36 -71 0 -31 5
-46 21 -57 31 -21 73 -10 208 57 70 35 89 101 44 153 -26 30 -55 86 -40 79 6
-4 3 1 -7 9 -11 9 -14 16 -8 16 9 0 10 5 2 19 -5 11 -10 30 -11 43 -1 23 -1
23 -8 -2 -5 -19 -8 -21 -13 -9 -3 9 -2 22 2 29 6 9 1 25 -13 44 -11 16 -16 26
-9 22 8 -5 10 -2 6 8 -3 9 -10 14 -15 11 -12 -8 -30 31 -22 51 5 13 3 15 -7 9
-9 -5 -11 -4 -6 4 4 6 2 18 -4 26 -10 12 -10 15 1 15 9 1 8 4 -4 11 -13 7 -16
17 -11 32 3 12 3 19 -1 15 -5 -5 -14 2 -20 15 -13 25 -8 47 7 26 7 -11 8 -9 5
6 -2 11 -9 19 -15 18 -7 -2 -12 9 -12 27 0 17 -5 30 -11 30 -5 0 -7 5 -4 10 3
6 1 10 -4 10 -6 0 -11 11 -11 25 0 14 -6 28 -14 31 -7 3 -19 23 -26 45 -13 39
-30 48 -58 30z"/>
<path d="M1309 9191 c-11 -37 -11 -50 3 -87 9 -25 12 -47 7 -50 -5 -3 -16 -29
-24 -59 -9 -29 -24 -64 -35 -77 -30 -39 -90 -145 -90 -161 0 -17 32 -47 50
-47 7 0 32 18 56 40 35 32 51 40 81 40 21 0 199 -38 395 -85 275 -66 363 -83
377 -75 25 13 27 13 45 -6 11 -10 16 -34 16 -71 0 -58 15 -82 52 -83 27 0 44
36 68 145 12 55 33 141 46 190 28 106 29 125 8 125 -12 0 -14 7 -9 30 11 50
-18 37 -50 -22 -37 -68 -68 -98 -100 -98 -15 0 -65 9 -113 20 -84 19 -171 38
-442 96 -234 49 -323 84 -293 115 9 9 7 18 -9 40 -14 19 -19 37 -15 56 2 15 1
37 -3 48 -6 17 -10 13 -21 -24z"/>
<path d="M13763 8893 c-7 -2 -13 -20 -13 -38 0 -51 -17 -84 -47 -96 -33 -12
-771 -119 -824 -119 -45 0 -62 15 -84 75 -14 35 -23 45 -41 45 -12 0 -26 -4
-29 -10 -3 -5 6 -84 20 -174 14 -90 27 -206 30 -257 5 -103 15 -121 63 -113
31 6 57 35 73 82 12 37 49 60 106 66 77 8 129 19 156 33 15 7 27 10 27 7 0 -4
9 1 21 12 17 16 22 16 29 4 14 -22 12 -53 -5 -76 -8 -12 -66 -56 -129 -98
-208 -138 -270 -222 -271 -366 0 -127 15 -238 34 -242 43 -11 112 33 103 65
-1 4 2 7 7 7 5 0 12 13 16 29 6 26 128 161 146 161 4 0 14 6 21 13 32 31 85
66 91 60 4 -3 7 -1 7 6 0 7 5 9 12 5 6 -4 8 -3 5 3 -8 12 20 39 29 30 4 -3 13
0 20 8 8 7 19 12 26 11 19 -3 58 -39 58 -53 0 -7 4 -13 8 -13 5 0 18 -9 30
-20 12 -12 22 -18 22 -14 0 3 6 1 14 -5 13 -11 46 -22 74 -23 6 -1 12 -6 12
-12 0 -6 5 -4 10 4 5 8 10 10 10 3 0 -11 17 -12 35 -2 6 4 19 5 30 3 10 -1 24
1 30 6 7 5 20 11 31 13 10 1 37 15 59 30 22 15 46 27 53 27 7 0 10 5 7 10 -3
6 0 13 8 16 8 3 30 33 48 67 18 34 37 65 43 69 8 5 8 8 -1 8 -13 0 -6 37 11
59 9 12 8 13 -3 6 -10 -6 -12 -4 -6 5 8 13 8 45 2 187 -1 24 -5 43 -9 43 -4 0
-7 8 -6 18 0 32 -11 117 -21 149 -5 17 -7 34 -3 37 3 3 1 6 -5 6 -5 0 -10 7
-10 15 0 8 4 15 9 15 5 0 2 7 -7 16 -10 10 -14 26 -11 38 3 12 -1 34 -9 50 -8
16 -15 34 -15 41 0 17 -27 27 -34 12 -2 -7 -5 -2 -5 10 -1 21 -25 54 -39 52
-4 0 -13 -3 -19 -6z m35 -481 c-5 -78 -38 -128 -108 -166 -98 -53 -241 -45
-297 17 -25 28 -36 58 -21 54 7 -1 13 3 13 8 7 56 31 81 85 90 110 19 178 28
213 28 15 0 27 3 27 8 0 4 13 10 30 14 16 4 33 11 36 17 15 23 26 -14 22 -70z"/>
<path d="M2146 8302 c-38 -102 -79 -141 -234 -220 -151 -77 -241 -109 -253
-90 -5 7 -9 9 -9 3 0 -5 -14 17 -31 50 -48 92 -116 158 -142 137 -7 -5 -45
-12 -85 -15 -129 -10 -185 -54 -281 -213 -37 -63 -43 -83 -51 -160 -5 -49 -10
-170 -10 -270 0 -166 2 -182 19 -198 26 -24 55 -13 80 30 11 19 33 39 48 45
21 8 129 6 413 -9 333 -17 388 -18 412 -6 24 13 28 12 37 -4 5 -9 12 -35 16
-57 12 -64 55 -97 82 -62 6 6 13 77 17 157 4 80 9 175 13 213 5 58 4 67 -11
67 -12 0 -16 9 -16 34 0 32 -14 55 -27 43 -3 -3 -15 -34 -28 -69 -36 -99 -44
-102 -220 -91 -121 8 -149 12 -157 26 -5 9 -15 17 -22 17 -20 0 -36 24 -30 46
6 20 52 45 222 118 180 78 262 146 302 252 21 57 29 204 11 204 -6 0 -13 20
-17 45 -3 25 -9 47 -13 49 -4 3 -20 -30 -35 -72z m-594 -397 c27 -11 59 -88
57 -137 -1 -24 2 -55 6 -70 5 -20 2 -31 -15 -48 -22 -22 -26 -22 -199 -16
-183 7 -221 12 -221 27 0 5 -11 19 -25 31 -32 27 -32 53 0 87 14 14 42 45 63
69 52 60 94 73 217 68 55 -2 108 -7 117 -11z"/>
<path d="M13005 7569 c-87 -13 -109 -25 -133 -72 -75 -153 -80 -374 -12 -507
11 -22 18 -40 15 -40 -3 0 -1 -9 5 -20 7 -13 7 -20 1 -20 -6 0 -1 -16 10 -35
12 -19 25 -35 31 -35 5 0 6 -6 2 -12 -4 -7 -4 -10 1 -6 5 5 23 -4 42 -18 39
-30 99 -51 161 -56 6 -1 12 -6 12 -11 0 -5 7 -4 15 3 8 7 28 10 45 8 16 -3 30
-1 30 4 0 4 11 8 25 8 14 0 37 7 50 16 14 9 25 13 25 10 0 -4 15 4 33 18 19
14 37 23 42 18 5 -4 6 -2 2 3 -3 6 24 40 59 75 35 36 67 74 70 85 4 11 10 22
14 25 3 3 20 30 38 60 63 112 95 133 199 134 66 1 73 -1 83 -22 16 -36 12
-102 -11 -148 -24 -50 -72 -89 -148 -120 -53 -22 -56 -25 -62 -64 -5 -38 20
-119 29 -92 2 8 13 7 38 -3 19 -8 32 -10 29 -5 -3 5 12 8 32 8 63 -2 112 9
157 36 38 22 45 32 60 86 21 73 27 117 29 192 1 31 5 60 9 63 4 4 0 21 -8 37
-11 22 -12 33 -4 43 8 10 8 15 -1 21 -8 5 -9 3 -4 -6 6 -9 4 -11 -4 -6 -7 5
-10 14 -7 21 3 8 -2 19 -10 25 -8 7 -14 19 -14 26 0 8 -9 23 -20 34 -11 11
-20 15 -20 8 0 -6 -12 4 -27 23 -81 100 -144 133 -258 133 -68 0 -88 -4 -134
-28 -73 -38 -137 -104 -198 -207 -81 -134 -173 -209 -257 -209 -43 0 -99 25
-127 58 -30 34 -30 34 -11 56 11 11 23 39 26 62 8 43 75 141 95 137 6 -2 11 1
11 7 0 5 28 24 61 41 67 33 109 72 109 99 0 10 -15 29 -34 44 -38 28 -76 31
-191 15z"/>
<path d="M1685 7095 c-49 -7 -110 -18 -135 -24 -137 -35 -282 -135 -350 -241
-8 -13 -27 -37 -41 -54 -37 -43 -52 -105 -52 -211 0 -205 61 -347 220 -510
110 -113 243 -163 408 -152 263 18 471 175 539 406 20 68 21 211 2 254 -8 18
-21 66 -31 107 -42 185 -145 324 -300 402 -70 36 -124 41 -260 23z m307 -292
c37 -8 71 -12 76 -9 18 11 80 -71 96 -125 21 -69 20 -102 -5 -169 -11 -30 -23
-64 -26 -75 -22 -72 -192 -184 -318 -210 -153 -32 -331 -25 -444 17 -78 30
-145 99 -166 173 -11 37 -14 60 -7 64 5 3 23 35 39 71 37 82 68 118 141 166
158 105 407 145 614 97z"/>
<path d="M12787 6673 c-3 -5 -19 -81 -36 -170 -17 -89 -43 -205 -56 -258 -33
-128 -30 -141 43 -141 23 0 37 3 31 7 -8 4 -4 9 10 14 11 3 21 11 21 16 0 6 4
7 10 4 5 -3 7 0 5 7 -7 18 43 45 75 41 14 -2 35 -4 48 -3 13 0 21 -4 18 -9 -4
-5 1 -8 10 -7 17 3 89 -8 134 -20 14 -3 36 -7 50 -9 14 -1 25 -3 25 -4 0 -3
26 -9 65 -15 14 -3 36 -7 50 -10 14 -4 39 -9 55 -12 17 -3 37 -7 45 -9 8 -2
21 -4 28 -4 7 -1 11 -4 9 -9 -3 -4 16 -8 41 -9 26 0 48 -6 50 -12 3 -9 8 -9
18 0 8 6 14 8 14 3 0 -5 21 -10 48 -12 26 -2 59 -4 74 -6 15 -2 25 1 22 5 -3
5 0 9 5 9 13 0 14 -70 2 -122 -5 -21 -5 -36 -1 -33 5 3 15 -1 22 -8 15 -16 78
-11 78 5 0 6 7 8 14 5 10 -4 13 -1 9 9 -3 7 -1 14 5 14 10 0 23 43 27 90 1 14
7 47 13 75 6 27 8 53 6 57 -3 5 0 8 6 8 6 0 10 8 9 18 -2 9 1 31 5 47 5 17 10
39 12 50 1 11 9 41 17 68 9 29 11 49 5 53 -5 3 -7 11 -5 17 3 10 -73 57 -94
57 -5 0 -21 -25 -35 -55 -19 -39 -34 -57 -51 -61 -28 -7 -73 1 -506 90 -362
75 -412 92 -373 132 9 8 16 24 16 35 0 13 4 18 12 13 7 -4 8 -3 4 4 -4 7 -13
12 -20 12 -7 0 -21 9 -31 20 -18 20 -50 27 -58 13z"/>
<path d="M2305 5904 c-64 -8 -179 -26 -192 -31 -36 -14 5 -97 56 -114 19 -7
63 -13 99 -15 42 -2 70 -9 83 -19 24 -22 88 -178 96 -232 7 -55 -12 -85 -76
-117 -110 -56 -703 -286 -736 -286 -31 0 -40 6 -67 45 -33 46 -42 51 -67 36
-12 -8 -1 -45 66 -213 45 -112 85 -214 89 -228 27 -94 96 -90 92 5 -1 50 11
69 62 95 51 26 644 264 710 285 30 10 59 21 65 26 16 15 21 11 45 -41 26 -56
52 -70 81 -44 23 21 24 37 3 58 -22 22 -58 105 -184 423 -61 153 -121 299
-132 326 -22 49 -22 49 -93 41z"/>
<path d="M12586 5842 c-2 -4 -27 -71 -55 -148 -28 -78 -71 -189 -96 -249 -44
-105 -56 -167 -34 -180 17 -11 78 -8 93 4 7 6 15 8 18 5 3 -3 5 3 5 13 -1 11
4 17 13 15 8 -2 12 0 8 4 -4 4 -3 13 3 21 13 15 55 17 64 3 3 -6 17 -8 30 -6
13 2 26 2 29 -2 4 -3 13 -7 22 -8 8 -1 31 -11 52 -21 20 -11 56 -25 80 -33 23
-7 42 -17 42 -22 0 -4 3 -7 8 -7 19 3 43 -2 39 -8 -3 -5 8 -9 24 -10 15 -1 43
-10 61 -20 18 -9 37 -16 42 -15 4 2 13 -1 20 -6 6 -5 25 -12 41 -16 17 -4 44
-14 60 -21 119 -54 163 -62 209 -38 l29 15 -6 -34 c-9 -59 -63 -165 -93 -185
-20 -13 -49 -18 -103 -19 -81 -1 -106 -16 -95 -60 3 -12 1 -25 -4 -28 -6 -3
-8 -15 -5 -27 4 -16 8 -17 14 -7 7 10 9 9 9 -4 0 -9 -6 -19 -12 -21 -10 -4
-10 -6 -1 -6 6 -1 14 3 17 8 7 11 46 2 46 -11 0 -5 4 -7 9 -4 5 3 14 -1 21 -8
6 -8 25 -18 41 -21 16 -4 35 -14 41 -23 7 -9 22 -18 33 -20 11 -1 34 -5 50 -8
24 -5 36 0 58 20 17 16 26 33 23 41 -3 8 -2 15 2 15 4 0 8 19 9 43 1 23 13 67
27 97 14 30 26 63 26 72 0 9 5 20 10 23 6 4 8 10 5 15 -6 10 42 120 53 120 5
0 8 16 8 36 0 20 6 39 15 45 7 5 10 9 5 9 -5 0 -3 7 4 15 7 8 9 15 5 15 -4 0
-3 6 3 13 5 6 20 42 32 80 13 37 27 67 32 67 5 0 7 4 4 9 -3 5 1 22 9 37 8 16
15 35 15 42 0 7 4 10 10 7 6 -3 7 1 4 9 -3 9 -1 16 5 16 6 0 11 7 11 15 0 7 6
18 13 22 16 11 37 49 37 69 0 9 -8 23 -17 31 -10 8 -12 11 -4 7 10 -5 12 -3 7
5 -5 7 -14 10 -22 7 -16 -6 -121 48 -207 106 -32 22 -65 37 -73 34 -24 -9 -28
-36 -10 -67 17 -28 17 -29 -4 -29 -19 0 -18 -3 10 -30 17 -17 28 -35 24 -42
-4 -7 -3 -8 5 -4 6 4 9 11 6 16 -3 5 3 8 14 7 11 0 17 -5 15 -9 -3 -4 -1 -8 5
-8 6 0 14 -16 20 -35 11 -40 -2 -105 -38 -188 -16 -37 -25 -47 -38 -43 -77 25
-797 306 -817 320 -32 20 -32 28 -4 41 30 13 50 57 42 90 -9 34 -93 71 -108
47z"/>
<path d="M12079 4743 c-29 -49 -93 -148 -142 -222 -91 -137 -107 -180 -82
-215 9 -12 25 -16 54 -14 22 2 41 6 41 10 0 4 9 10 20 13 11 4 18 11 15 16 -4
5 1 9 9 9 9 0 16 5 16 11 0 8 6 7 17 -2 9 -8 14 -9 10 -2 -5 7 0 9 13 6 11 -3
17 -10 13 -15 -3 -6 0 -9 8 -6 7 2 36 -13 64 -34 27 -21 58 -38 68 -38 9 0 25
-8 35 -18 24 -24 99 -62 107 -54 3 3 3 -2 -1 -13 -6 -15 -4 -17 11 -12 15 6
16 5 5 -8 -11 -13 -10 -14 5 -9 13 5 16 4 11 -4 -4 -7 -3 -12 2 -12 10 0 47
-77 47 -100 0 -8 4 -13 9 -10 13 8 56 -84 42 -92 -8 -5 -5 -13 8 -25 18 -17
19 -17 12 2 -6 19 -5 19 8 2 8 -11 12 -26 9 -35 -4 -9 -2 -13 4 -9 6 4 25 -26
45 -71 49 -107 50 -114 34 -163 -27 -86 -29 -116 -5 -132 15 -11 29 -13 51 -6
35 10 78 46 78 66 0 7 5 12 12 10 7 -1 12 3 13 8 0 6 10 24 22 41 12 17 20 34
16 37 -3 4 2 9 11 13 9 3 16 12 16 19 0 7 7 18 15 25 9 7 13 15 10 18 -3 3 3
11 13 18 13 9 18 25 18 52 -1 22 2 38 7 35 4 -2 7 0 7 4 0 5 -23 16 -51 26
l-51 19 -32 -31 c-18 -17 -38 -31 -44 -31 -12 0 -55 63 -52 76 1 4 -2 10 -7
13 -13 10 -39 45 -28 39 6 -4 12 2 12 13 1 10 -3 19 -8 19 -6 0 -7 -4 -4 -10
3 -5 1 -10 -5 -10 -7 0 -9 7 -6 16 3 8 0 25 -6 37 -7 12 -11 26 -10 30 1 5 -2
5 -8 2 -7 -4 -14 2 -17 14 -3 12 -11 21 -19 21 -7 0 -17 12 -20 26 -8 33 16
60 43 49 30 -13 43 -14 43 -2 0 8 3 8 8 2 4 -5 16 -11 27 -12 28 -2 63 -11 77
-19 7 -4 8 -3 4 4 -4 7 -2 12 3 12 6 0 11 -5 11 -11 0 -6 8 -8 19 -4 10 3 30
1 45 -5 18 -6 25 -6 21 0 -3 6 3 10 13 10 11 0 32 7 48 15 15 8 29 13 31 12 1
-2 -3 -21 -9 -43 -6 -21 -12 -42 -12 -46 -1 -3 -4 -9 -8 -13 -20 -20 28 -73
62 -68 45 6 67 24 102 84 19 32 38 56 42 52 3 -3 6 3 6 15 0 11 6 27 13 34 14
16 34 47 44 68 4 8 11 20 15 25 5 6 19 23 33 39 13 17 22 33 19 37 -2 5 4 13
15 19 12 6 18 16 15 25 -4 8 -2 15 2 15 5 0 9 13 9 29 0 16 -3 27 -7 25 -4 -2
-10 1 -13 7 -4 5 -13 8 -20 5 -8 -3 -19 2 -25 10 -18 21 -29 18 -76 -26 -36
-33 -51 -40 -85 -40 -44 0 -537 57 -579 67 -69 16 -290 157 -290 184 0 4 9 10
19 14 19 6 39 43 42 80 3 44 -1 54 -20 50 -11 -2 -25 3 -32 11 -25 30 -46 15
-100 -73z"/>
<path d="M2916 4687 c-18 -13 -18 -15 3 -62 41 -92 36 -99 -182 -239 -118 -76
-140 -87 -152 -75 -7 8 -36 52 -64 99 l-52 84 25 13 c40 21 87 113 57 113 -5
0 -11 9 -14 20 -10 40 -35 32 -155 -47 -66 -43 -134 -86 -151 -95 l-32 -17 20
-40 c26 -50 42 -55 115 -36 32 8 61 13 65 10 5 -2 32 -41 61 -85 45 -69 51
-83 39 -94 -25 -25 -313 -206 -326 -206 -14 0 -120 159 -135 202 -8 23 -4 35
30 85 65 97 65 97 42 143 -11 22 -25 40 -31 40 -6 0 -60 -32 -120 -72 l-109
-72 17 -26 c139 -209 374 -578 396 -622 22 -45 34 -58 52 -58 35 0 47 23 40
72 -6 40 -4 45 32 80 41 39 592 399 658 429 56 26 89 24 109 -5 19 -30 49 -40
76 -26 31 17 24 43 -28 112 -26 35 -94 136 -150 226 -57 89 -107 162 -111 162
-4 0 -15 -6 -25 -13z"/>
<path d="M8787 2301 c-38 -26 -118 -72 -179 -101 -103 -50 -109 -55 -105 -79
3 -14 1 -33 -3 -41 -24 -46 52 -67 163 -46 33 6 38 5 46 -16 4 -13 46 -180 91
-371 66 -275 81 -354 74 -375 -8 -22 -23 -32 -77 -51 -62 -22 -68 -26 -66 -50
1 -14 -2 -34 -6 -44 -13 -30 23 -55 76 -51 55 3 67 6 170 39 45 14 88 24 96
21 7 -3 13 -1 13 4 0 6 10 8 23 6 12 -2 28 2 36 8 12 9 13 8 7 -4 -7 -13 -6
-13 6 0 16 18 32 23 76 22 17 -1 32 3 32 8 0 6 3 9 8 9 16 -3 72 14 80 25 17
21 32 76 21 76 -6 0 -7 5 -4 10 6 9 1 11 -33 14 -7 1 -16 7 -21 14 -6 9 -19
10 -63 1 -72 -15 -106 -7 -114 27 -4 14 -2 29 3 33 16 10 23 39 10 45 -9 3 -8
7 2 14 12 9 12 13 -3 27 -9 10 -15 24 -12 31 3 7 1 16 -4 19 -6 4 -7 17 -4 30
3 12 1 26 -5 29 -5 4 -8 13 -4 21 3 8 0 15 -7 15 -7 0 -10 8 -7 20 3 11 1 20
-5 20 -6 0 -8 7 -4 15 3 8 1 15 -5 15 -5 0 -9 6 -8 13 5 38 -2 68 -13 61 -10
-6 -10 -5 0 8 10 12 9 18 -3 28 -8 7 -13 16 -10 20 3 5 1 20 -5 34 -6 16 -6
26 0 26 5 0 2 15 -7 33 -35 70 -35 70 -21 61 10 -6 10 -4 -1 9 -7 9 -11 23 -8
32 4 8 0 27 -8 42 -10 18 -11 29 -4 34 6 4 3 9 -7 13 -16 6 -16 8 -4 16 12 8
12 10 1 10 -9 0 -12 9 -9 29 3 19 0 27 -7 25 -10 -4 -15 18 -15 74 0 12 -6 22
-13 22 -8 0 -7 4 3 10 12 8 9 10 -12 10 -18 0 -33 9 -44 25 -9 14 -21 25 -28
25 -6 -1 -42 -22 -79 -49z"/>
<path d="M6319 2296 c-9 -9 -103 -15 -236 -15 l-143 -1 -6 -25 c-4 -15 -1 -32
6 -40 7 -9 10 -18 7 -22 -4 -3 -2 -14 3 -23 11 -21 65 -31 97 -19 45 17 39
-28 -50 -400 -47 -196 -90 -369 -96 -383 -18 -47 -48 -59 -121 -47 -50 8 -65
7 -71 -3 -13 -19 -11 -58 2 -58 8 0 8 -4 0 -13 -13 -17 7 -49 35 -54 71 -14
83 -16 167 -38 34 -9 71 -18 82 -20 11 -2 27 -5 35 -7 8 -2 43 -10 78 -18 34
-8 62 -17 62 -20 0 -12 125 -10 142 3 29 23 23 87 -8 87 -8 0 -14 4 -14 8 0 5
-24 16 -53 25 -29 9 -62 23 -72 31 -19 14 -19 15 7 39 23 21 32 40 43 87 1 3
5 16 8 30 4 14 9 36 11 50 7 40 48 204 54 214 3 5 7 27 9 48 1 22 9 51 17 66
7 15 14 38 14 52 1 31 6 52 14 65 3 6 9 31 13 55 4 25 16 79 27 120 11 41 21
80 22 85 2 6 6 18 11 28 11 26 -2 63 -33 92 -24 22 -52 32 -63 21z"/>
<path d="M7945 2180 c-268 -55 -272 -56 -279 -78 -6 -19 -81 -425 -89 -484 -3
-21 -1 -40 4 -44 5 -3 7 -9 4 -14 -4 -7 25 -15 90 -26 6 -1 27 -2 48 -3 28 -1
36 -4 31 -13 -6 -10 -4 -10 7 -2 14 10 63 11 104 1 64 -16 75 -20 75 -29 0 -5
4 -7 9 -4 5 3 22 -1 37 -9 16 -8 35 -15 42 -15 6 0 12 -6 13 -12 0 -7 4 -4 8
7 7 18 9 17 26 -8 12 -18 20 -54 23 -102 6 -91 -15 -141 -89 -210 -74 -69
-174 -109 -359 -142 -43 -8 -45 -10 -45 -43 0 -19 -4 -38 -9 -41 -15 -12 3
-56 26 -65 26 -9 128 -12 128 -4 0 9 109 32 119 25 5 -3 11 0 13 5 2 6 10 12
18 14 43 8 100 28 105 36 4 6 11 8 16 5 5 -4 9 -1 9 5 0 6 4 8 10 5 5 -3 22 3
37 13 16 10 48 32 73 48 25 15 53 36 62 45 9 9 21 19 26 20 4 2 28 31 53 64
24 33 48 63 52 66 5 3 9 12 11 20 1 8 7 23 13 34 21 40 37 182 23 210 -2 6 -5
17 -5 26 0 9 -6 23 -14 32 -7 9 -11 24 -7 32 3 9 2 14 -3 11 -10 -7 -33 18
-25 27 3 3 -4 3 -15 0 -17 -4 -20 -2 -15 11 4 9 3 16 -2 14 -5 -2 -29 18 -53
45 -78 84 -208 129 -414 144 -93 6 -137 16 -137 30 0 14 83 55 112 56 16 1 28
4 28 7 0 3 10 6 23 6 31 2 123 17 172 28 11 2 41 8 68 12 26 3 47 9 47 13 0 3
12 12 28 18 15 7 36 28 46 47 10 20 22 34 25 31 4 -2 8 4 9 13 6 54 15 91 22
87 4 -2 5 6 3 18 -5 24 -65 68 -91 66 -9 -1 -120 -23 -247 -49z"/>
<path d="M6905 2176 c-98 -24 -178 -84 -221 -166 -26 -49 -27 -201 -1 -247 9
-18 18 -36 18 -40 2 -16 20 -43 29 -43 5 0 18 -7 27 -15 10 -8 26 -21 37 -28
17 -13 14 -16 -46 -50 -117 -65 -188 -168 -188 -270 0 -37 31 -139 45 -149 6
-5 4 -8 -5 -8 -9 0 -11 -3 -5 -8 6 -4 12 -18 13 -32 2 -14 8 -27 13 -28 25 -9
68 -55 62 -65 -3 -7 -3 -9 1 -5 7 6 40 -4 121 -37 47 -19 153 -34 215 -30 49
3 127 13 155 20 30 7 104 47 119 64 10 11 23 18 27 15 5 -3 9 -1 9 4 0 8 22
39 73 102 7 8 13 29 14 45 4 66 8 87 16 92 4 2 3 11 -4 19 -6 8 -9 25 -7 39 3
14 2 25 -2 25 -4 0 -10 13 -13 28 -3 16 -17 34 -31 42 -14 7 -24 15 -21 18 2
3 13 -1 22 -9 16 -13 17 -12 4 4 -7 9 -19 17 -25 17 -6 0 -40 32 -74 70 l-64
70 34 12 c18 7 36 12 39 11 4 -1 26 16 49 37 24 22 40 40 37 40 -4 0 5 16 18
36 14 20 26 40 26 43 5 27 3 141 -3 141 -4 0 -5 7 -2 15 4 8 2 15 -4 15 -5 0
-15 14 -22 30 -7 17 -17 30 -22 30 -6 0 -5 -8 3 -17 7 -10 -14 10 -47 44 -108
113 -265 157 -419 119z m185 -160 c0 -7 4 -6 9 2 17 27 46 8 60 -38 27 -84
-20 -236 -78 -255 -43 -13 -175 104 -164 145 3 12 11 24 18 26 7 3 11 13 8 23
-5 22 36 91 55 91 6 0 12 4 12 8 0 4 18 8 40 9 24 0 40 -4 40 -11z m-125 -556
c4 -6 11 -8 16 -5 5 4 9 3 9 -2 0 -11 61 -47 80 -47 42 -1 66 -139 36 -209
-46 -109 -191 -116 -264 -14 -17 25 -20 34 -10 42 14 11 14 10 22 80 6 60 40
140 64 154 22 13 39 14 47 1z"/>
</g>
</svg>
