<?xml version="1.0" standalone="no"?>
<!DOCTYPE svg PUBLIC "-//W3C//DTD SVG 20010904//EN"
 "http://www.w3.org/TR/2001/REC-SVG-20010904/DTD/svg10.dtd">
<svg version="1.0" xmlns="http://www.w3.org/2000/svg"
 width="250.000000pt" height="250.000000pt" viewBox="0 0 250.000000 250.000000"
 preserveAspectRatio="xMidYMid meet">
<metadata>
Created by potrace 1.16, written by Peter Selinger 2001-2019
</metadata>
<g transform="translate(0.000000,250.000000) scale(0.027778,-0.026596)"
fill="#000000" stroke="none">
<path d="M4180 8984 c-19 -2 -78 -9 -130 -15 -1334 -149 -2511 -973 -3114
-2177 -222 -443 -355 -906 -407 -1417 -18 -177 -16 -598 5 -783 101 -920 495
-1748 1141 -2398 627 -631 1422 -1023 2320 -1145 218 -30 651 -37 882 -15 922
88 1756 473 2412 1111 670 653 1071 1463 1188 2405 28 224 25 726 -5 950 -76
560 -249 1068 -523 1534 -580 983 -1571 1680 -2689 1890 -272 52 -347 58 -705
61 -187 2 -356 1 -375 -1z m558 -114 c536 -31 1014 -155 1489 -385 414 -201
743 -435 1068 -760 643 -642 1020 -1425 1132 -2345 21 -177 24 -638 5 -805
-77 -679 -288 -1263 -649 -1800 -595 -886 -1539 -1502 -2577 -1680 -259 -44
-336 -50 -686 -50 -349 0 -409 5 -678 51 -1191 203 -2246 979 -2804 2059 -295
572 -438 1157 -438 1796 0 631 135 1202 416 1759 193 383 402 675 704 983 796
814 1893 1242 3018 1177z"/>
<path d="M4225 8753 c-1065 -90 -2022 -598 -2687 -1428 -381 -476 -654 -1073
-763 -1668 -49 -268 -59 -392 -59 -702 0 -311 10 -435 59 -702 212 -1154 970
-2161 2030 -2698 389 -197 791 -319 1255 -382 169 -23 712 -26 880 -5 895 111
1651 475 2271 1092 195 194 344 375 484 585 349 524 552 1087 621 1717 20 182
23 566 6 743 -87 880 -454 1675 -1067 2304 -632 650 -1465 1050 -2364 1136
-138 13 -546 18 -666 8z m610 -163 c491 -45 932 -173 1360 -394 1112 -575
1854 -1676 1965 -2916 13 -147 13 -491 0 -640 -65 -735 -352 -1436 -824 -2009
-114 -138 -381 -401 -521 -512 -570 -453 -1189 -707 -1925 -790 -170 -20 -601
-17 -775 4 -928 114 -1740 540 -2344 1232 -498 569 -795 1256 -882 2035 -18
164 -16 581 5 755 76 654 317 1264 699 1775 614 823 1551 1355 2560 1455 162
16 533 19 682 5z"/>
<path d="M4484 8400 c-13 -13 -364 -43 -436 -37 -51 4 -58 3 -58 -12 0 -10 -3
-46 -6 -80 -6 -49 -4 -61 8 -61 7 0 19 15 26 34 7 18 21 41 32 51 21 19 112
37 129 26 4 -3 17 -113 27 -243 19 -257 18 -264 -33 -270 -15 -2 -29 -9 -31
-17 -5 -14 40 -13 236 6 66 6 81 25 24 31 -17 2 -35 9 -41 16 -12 15 -55 472
-45 487 3 5 32 9 64 9 51 0 61 -3 79 -26 11 -14 23 -34 26 -45 4 -10 13 -19
21 -19 11 0 14 17 14 80 0 80 -9 97 -36 70z"/>
<path d="M4700 8372 c0 -7 11 -17 24 -21 13 -5 26 -17 30 -26 7 -20 -42 -442
-54 -466 -5 -9 -28 -19 -50 -23 -86 -14 -36 -30 163 -52 108 -12 213 -25 232
-28 35 -7 36 -6 60 46 44 94 30 119 -30 53 -41 -44 -43 -45 -102 -45 -74 0
-120 15 -129 42 -6 21 3 157 13 192 4 16 12 17 61 11 67 -8 78 -15 86 -55 3
-17 12 -30 19 -30 10 0 16 21 21 72 3 39 9 82 12 95 9 34 -21 30 -38 -4 -12
-26 -17 -28 -78 -28 l-65 0 2 85 c4 136 3 134 76 126 86 -10 108 -23 135 -79
12 -26 27 -45 32 -42 6 4 10 37 10 76 l0 69 -37 0 c-21 1 -118 11 -215 23
-141 18 -178 20 -178 9z"/>
<path d="M3613 8243 c-26 -34 -31 -48 -37 -128 -17 -225 -38 -420 -47 -436 -5
-10 -18 -21 -29 -24 -11 -3 -20 -13 -20 -21 0 -17 0 -17 63 0 29 8 71 20 94
26 30 7 41 15 37 25 -4 10 -15 12 -34 9 -16 -4 -31 -1 -35 5 -3 7 -3 45 0 86
l7 75 68 20 c37 11 72 20 77 20 6 0 30 -30 53 -67 l42 -67 -28 -23 c-16 -12
-25 -25 -22 -29 11 -10 258 60 258 74 0 7 -13 12 -32 12 -18 0 -38 4 -45 8
-11 7 -278 388 -311 445 -9 15 -19 27 -22 27 -4 0 -20 -17 -37 -37z"/>
<path d="M3260 8160 c-24 -31 -396 -203 -421 -195 -19 6 -21 4 -16 -16 3 -13
11 -50 18 -82 16 -69 39 -75 44 -11 2 23 8 51 14 63 12 21 79 61 104 61 19 0
220 -425 212 -449 -3 -10 -17 -24 -30 -31 -25 -13 -36 -46 -12 -37 86 34 257
123 257 134 0 10 -7 12 -20 9 -11 -3 -29 -8 -39 -11 -27 -8 -42 17 -150 244
-70 148 -89 196 -81 207 7 7 31 20 55 29 38 15 45 15 72 2 16 -9 35 -23 42
-31 19 -22 45 -21 37 2 -53 141 -58 148 -86 112z"/>
<path d="M5726 8165 c-3 -8 7 -21 20 -30 33 -22 31 -31 -59 -220 -62 -129 -72
-159 -75 -215 -3 -60 -1 -69 27 -107 59 -81 196 -136 280 -113 68 18 104 60
177 203 102 201 107 207 154 207 22 0 40 4 40 10 0 9 -176 100 -193 100 -17 0
-5 -29 19 -45 23 -15 25 -22 21 -52 -7 -42 -118 -274 -153 -320 -69 -90 -197
-81 -247 17 -26 51 -15 92 65 265 83 178 91 189 135 180 69 -13 31 21 -86 76
-88 42 -121 53 -125 44z"/>
<path d="M2570 7787 c-25 -12 -64 -40 -87 -63 -70 -71 -81 -159 -26 -224 45
-54 75 -63 188 -57 123 7 147 2 185 -33 41 -39 42 -90 1 -131 -26 -25 -37 -29
-86 -29 -37 0 -70 7 -97 21 -52 27 -70 13 -39 -30 25 -34 72 -71 93 -71 31 0
136 61 175 101 48 50 63 84 63 140 0 47 -17 84 -57 121 -46 44 -75 50 -209 42
-122 -7 -122 -7 -148 19 -36 36 -35 80 3 118 35 35 76 38 139 9 38 -17 44 -18
49 -4 7 18 -63 94 -87 94 -8 -1 -35 -11 -60 -23z"/>
<path d="M6435 7800 c-3 -5 4 -23 16 -40 29 -39 26 -45 -96 -195 -165 -203
-187 -223 -230 -203 -17 7 -29 8 -35 2 -9 -9 57 -70 142 -132 29 -21 41 -4 18
25 -38 49 -35 55 120 246 l95 119 5 -304 c6 -379 -2 -370 157 -176 59 73 135
161 168 196 59 63 61 64 103 58 23 -3 42 -2 42 2 0 11 -157 142 -170 142 -16
0 -12 -19 11 -49 l21 -28 -20 -39 c-25 -47 -162 -216 -180 -222 -11 -3 -13 41
-11 241 l2 245 -61 51 c-33 28 -63 55 -67 61 -8 13 -22 13 -30 0z"/>
<path d="M4250 7560 c-636 -61 -1203 -325 -1644 -766 -421 -421 -682 -959
-757 -1559 -21 -163 -16 -504 10 -670 44 -295 117 -529 245 -790 136 -277 285
-484 506 -706 400 -400 913 -658 1485 -745 169 -26 581 -26 745 -1 488 76 907
257 1280 554 110 86 327 304 413 413 568 717 726 1648 426 2517 -54 156 -190
431 -282 569 -423 637 -1076 1053 -1823 1164 -161 23 -461 33 -604 20z m-1520
-2061 c23 -33 58 -89 79 -125 l38 -64 71 72 c39 40 85 92 103 116 17 23 33 42
36 42 11 0 -7 -205 -23 -265 -24 -92 -91 -217 -163 -308 l-66 -82 -59 -3
c-120 -6 -341 25 -482 69 -50 16 -64 24 -64 39 0 34 33 55 141 89 252 80 286
125 334 444 3 20 8 37 10 37 2 0 23 -27 45 -61z m3645 4 c3 -32 15 -97 26
-145 37 -159 90 -208 294 -273 108 -35 155 -65 155 -100 0 -37 -343 -105 -533
-105 -60 0 -65 2 -99 38 -143 150 -228 353 -228 542 l0 81 59 -73 c33 -40 79
-92 104 -116 l44 -43 64 102 c90 145 93 149 100 149 4 0 10 -26 14 -57z
m-2916 -851 c8 -133 12 -245 9 -247 -16 -16 -405 -71 -605 -86 -255 -19 -448
11 -544 84 -34 25 -45 42 -56 82 -14 53 -57 281 -67 354 -8 50 -29 49 169 7
290 -62 582 -52 975 33 47 10 90 18 95 17 6 -2 16 -103 24 -244z m2306 214
c232 -44 363 -59 530 -59 174 0 258 10 433 49 63 14 116 23 119 21 6 -7 -32
-231 -60 -347 -21 -89 -25 -96 -65 -127 -87 -66 -271 -100 -482 -89 -188 11
-650 73 -667 90 -6 5 16 463 23 484 2 7 12 11 21 8 10 -3 77 -16 148 -30z
m-1709 -7 c189 -66 448 -95 625 -70 96 14 261 54 320 78 22 8 43 13 46 9 5 -4
30 -374 33 -477 0 -33 -267 -102 -457 -118 -178 -16 -393 12 -591 76 l-83 27
5 60 c3 34 8 113 11 176 8 172 16 260 25 260 4 0 33 -9 66 -21z"/>
<path d="M2771 4663 c-25 -3 -31 -7 -20 -13 20 -13 27 -179 8 -191 -9 -6 1 -9
30 -9 34 0 41 3 33 13 -16 19 -19 80 -5 84 7 3 22 -12 34 -31 24 -41 46 -56
81 -56 20 1 21 2 6 11 -10 5 -29 26 -43 46 -21 31 -22 39 -11 52 52 62 -5 109
-113 94z"/>
<path d="M5677 4718 c13 -15 -16 -157 -37 -183 -11 -13 -8 -15 14 -15 15 0 25
4 21 10 -8 12 15 141 24 135 4 -2 16 -38 26 -79 11 -42 22 -76 25 -76 4 0 28
32 55 70 26 39 49 69 51 67 9 -9 -20 -133 -34 -144 -14 -11 -12 -13 10 -13 15
0 35 -3 45 -7 15 -6 16 -4 6 8 -9 12 -10 31 -3 80 15 98 19 109 38 110 12 0
10 3 -7 10 -13 5 -28 8 -32 7 -5 -2 -31 -34 -58 -72 -56 -78 -52 -79 -81 33
-16 60 -20 66 -46 69 -22 3 -26 1 -17 -10z"/>
<path d="M6014 4666 c-43 -19 -64 -53 -64 -103 0 -52 30 -91 80 -102 79 -17
140 28 140 103 0 50 -21 83 -66 102 -41 17 -50 17 -90 0z m82 -20 c24 -20 28
-31 28 -73 0 -72 -24 -105 -72 -101 -31 3 -40 9 -55 40 -22 46 -14 101 19 135
29 29 46 29 80 -1z"/>
<path d="M6198 4653 c8 -3 12 -33 12 -98 0 -65 -4 -95 -12 -98 -7 -3 3 -6 22
-6 l35 -1 -3 45 c-5 54 18 63 38 15 15 -36 55 -70 81 -70 16 0 15 3 -5 24 -13
12 -31 37 -40 54 -15 30 -15 32 4 42 13 7 20 21 20 40 0 42 -32 60 -105 59
-33 0 -54 -3 -47 -6z"/>
<path d="M4276 4640 c8 -8 7 -33 -2 -93 -8 -45 -14 -85 -14 -89 0 -5 -8 -9
-17 -9 -10 -1 -4 -5 12 -9 34 -9 77 -11 58 -3 -14 5 -17 61 -4 81 10 16 19 6
49 -54 20 -39 38 -54 64 -54 6 0 4 8 -4 18 -9 9 -23 35 -32 56 -13 32 -14 41
-4 48 7 4 16 8 20 8 11 0 20 39 13 59 -7 22 -41 37 -105 46 -34 5 -42 4 -34
-5z"/>
<path d="M7040 7259 c0 -6 5 -19 11 -30 5 -11 7 -28 4 -39 -8 -24 -332 -298
-363 -306 -15 -4 -30 0 -43 12 -15 13 -22 15 -31 6 -9 -9 -2 -23 33 -60 25
-26 65 -71 89 -100 44 -54 72 -59 49 -9 -6 14 -9 32 -6 40 5 13 190 175 312
275 44 36 70 40 97 15 12 -11 22 -13 29 -6 6 6 -18 43 -77 111 -82 97 -104
116 -104 91z"/>
<path d="M1790 7007 c0 -40 9 -61 77 -164 205 -316 210 -326 192 -393 -2 -8 1
-15 7 -15 11 0 124 143 124 157 0 14 -27 9 -40 -7 -7 -8 -18 -15 -26 -15 -18
0 -97 118 -90 135 12 32 81 115 96 114 8 0 42 -10 75 -22 59 -22 60 -23 58
-60 -1 -20 1 -37 6 -37 10 0 161 196 161 210 0 16 -18 12 -50 -11 l-29 -22
-253 83 c-139 45 -265 84 -280 87 -27 5 -28 4 -28 -40z"/>
<path d="M7295 6939 c6 -44 6 -45 -111 -199 -65 -85 -144 -188 -176 -229 -61
-78 -67 -91 -44 -110 12 -10 33 -9 98 3 114 21 338 53 424 61 67 6 72 5 102
-20 25 -21 33 -24 37 -13 6 16 -81 168 -96 168 -5 0 -9 -15 -9 -33 l0 -33
-117 -22 c-202 -37 -254 -44 -260 -39 -6 6 224 307 234 307 4 0 15 -8 25 -17
11 -10 22 -13 28 -7 10 10 -109 215 -129 222 -9 3 -11 -7 -6 -39z"/>
<path d="M1633 6589 c-54 -10 -76 -22 -130 -72 -56 -51 -101 -126 -163 -271
-55 -128 -57 -136 -35 -136 8 0 15 4 15 10 0 5 9 14 20 20 22 12 64 -5 323
-130 l129 -61 -4 -41 c-2 -23 2 -43 7 -44 6 -2 43 65 83 149 79 163 107 258
96 329 -25 162 -182 276 -341 247z m76 -138 c84 -26 154 -80 185 -143 29 -58
31 -83 14 -140 -16 -54 -55 -91 -89 -84 -28 5 -375 162 -396 179 -46 35 47
171 135 197 45 14 87 11 151 -9z"/>
<path d="M7653 6301 c4 -20 1 -33 -12 -45 -23 -21 -400 -156 -435 -156 -19 0
-32 8 -44 30 -16 27 -42 41 -42 22 0 -5 22 -67 49 -138 26 -71 61 -168 77
-216 l28 -88 52 0 c99 0 136 33 52 46 -50 9 -90 45 -112 102 -23 60 -21 98 7
116 26 17 154 66 172 66 15 0 45 -70 45 -104 0 -14 -11 -33 -25 -44 -26 -21
-33 -42 -14 -42 7 0 50 14 96 32 82 31 104 55 46 51 -19 -2 -36 4 -45 15 -22
25 -50 104 -41 113 10 10 170 69 187 69 14 0 56 -112 56 -147 0 -12 -13 -38
-30 -56 -30 -34 -38 -57 -21 -57 5 0 34 11 66 25 44 20 56 30 52 43 -3 9 -36
101 -73 205 -46 127 -72 187 -82 187 -11 0 -13 -8 -9 -29z"/>
<path d="M1216 5868 c-7 -24 -56 -243 -56 -250 0 -18 21 -6 32 17 6 13 19 27
29 30 19 6 425 -87 459 -105 14 -8 20 -21 20 -45 0 -22 5 -35 13 -35 9 0 23
43 42 123 16 67 31 128 33 135 7 24 -23 11 -40 -18 -9 -17 -24 -30 -33 -30 -8
0 -110 23 -226 50 -116 28 -212 50 -214 50 -14 0 -35 37 -35 61 0 29 -17 41
-24 17z"/>
<path d="M7860 5666 c0 -13 -7 -29 -16 -37 -16 -13 -368 -68 -442 -69 -39 0
-44 3 -53 30 -6 17 -18 30 -26 30 -12 0 -13 -8 -7 -42 4 -24 12 -83 18 -131 6
-48 15 -89 20 -90 5 -1 14 13 20 31 15 43 23 47 125 62 69 9 85 9 92 -2 19
-29 1 -53 -81 -112 -109 -79 -130 -110 -130 -190 0 -110 20 -136 46 -61 14 43
51 80 152 152 l63 46 39 -38 c69 -67 166 -57 220 22 22 32 25 47 25 127 -1
113 -32 296 -52 296 -7 0 -13 -11 -13 -24z m26 -200 c12 -68 -41 -126 -124
-134 -54 -5 -107 16 -116 45 -16 60 -17 83 -2 89 19 7 171 31 208 33 23 1 28
-4 34 -33z"/>
<path d="M1668 5389 c-13 -37 -88 -89 -193 -133 -56 -24 -70 -27 -73 -15 -3 8
-21 31 -42 51 -50 50 -95 58 -157 27 -76 -38 -93 -82 -105 -274 -8 -110 -8
-159 0 -167 14 -14 32 -1 32 23 0 11 7 22 16 26 26 10 465 -15 480 -27 7 -7
14 -23 16 -37 4 -39 25 -39 31 -1 11 61 11 232 1 235 -6 2 -17 -11 -25 -29
-17 -39 -28 -42 -136 -33 -83 7 -83 7 -83 35 0 33 8 40 82 69 141 56 187 112
188 224 0 63 -15 75 -32 26z m-302 -223 c27 -30 34 -113 12 -121 -7 -2 -62 -1
-123 3 l-110 7 -3 29 c-5 39 14 78 46 99 20 13 43 17 91 14 55 -3 67 -7 87
-31z"/>
<path d="M7420 4977 c-59 -30 -78 -204 -31 -295 51 -100 176 -119 266 -41 19
17 51 57 70 89 40 65 87 110 115 110 50 0 90 -41 90 -91 0 -36 -33 -79 -77
-100 -63 -30 -57 -49 16 -49 35 0 63 5 69 13 23 27 37 135 25 191 -15 70 -36
102 -84 127 -89 45 -165 13 -243 -100 -63 -91 -94 -116 -147 -116 -33 0 -46 6
-65 28 -54 63 -7 164 95 206 17 8 31 20 31 27 0 18 -95 19 -130 1z"/>
<path d="M1373 4750 c-105 -22 -181 -79 -224 -168 -17 -36 -22 -65 -23 -127 0
-132 60 -236 169 -293 70 -36 195 -38 272 -3 57 25 127 93 148 145 48 115 13
287 -77 373 -63 61 -174 91 -265 73z m232 -149 c22 -10 48 -28 59 -39 20 -23
32 -96 22 -136 -25 -101 -234 -187 -380 -156 -80 16 -126 58 -133 122 -7 63 0
87 39 127 63 64 159 99 278 100 53 0 87 -5 115 -18z"/>
<path d="M7317 4383 c-31 -148 -31 -143 -14 -143 7 0 18 14 24 30 15 40 31 39
282 -14 214 -45 231 -53 231 -104 0 -14 5 -22 12 -20 6 2 22 55 34 117 13 62
26 121 29 132 10 30 -24 24 -35 -6 -5 -14 -17 -28 -26 -32 -21 -8 -432 75
-461 93 -16 10 -23 24 -23 44 0 18 -5 30 -13 30 -9 0 -22 -42 -40 -127z"/>
<path d="M1740 4103 c-80 -12 -90 -15 -90 -28 0 -14 12 -19 72 -29 45 -8 80
-47 103 -115 18 -56 15 -80 -14 -98 -32 -20 -394 -163 -412 -163 -9 0 -24 11
-33 25 -17 26 -36 33 -36 14 0 -28 96 -249 108 -249 11 0 13 9 8 33 -5 25 -2
38 11 50 20 17 413 177 436 177 9 0 25 -14 38 -31 13 -18 25 -27 31 -21 14 14
-162 442 -181 441 -9 -1 -27 -3 -41 -6z"/>
<path d="M7235 4068 c-2 -7 -25 -67 -50 -134 -25 -67 -45 -126 -45 -133 0 -21
20 -11 35 19 11 21 23 30 39 30 27 0 432 -152 448 -168 6 -6 2 -28 -12 -60
-23 -54 -58 -76 -110 -70 -47 6 -30 -22 32 -50 77 -35 84 -36 81 -11 -4 30
147 418 170 440 12 10 19 20 16 22 -2 2 -30 21 -63 41 -68 44 -105 43 -63 -2
41 -43 47 -70 28 -132 -13 -43 -21 -54 -35 -52 -31 6 -410 152 -434 168 -19
12 -21 20 -16 53 6 37 -11 69 -21 39z"/>
<path d="M6923 3416 c-69 -106 -83 -136 -66 -136 4 0 20 12 35 27 l29 28 57
-30 c89 -46 139 -104 210 -244 55 -108 62 -128 57 -161 -4 -21 -2 -40 3 -43
11 -8 114 151 106 164 -3 5 -17 0 -32 -11 l-26 -21 -17 22 c-23 30 -119 199
-119 209 0 7 234 -25 250 -35 6 -3 5 -16 0 -29 -8 -23 -5 -36 11 -36 9 0 139
204 139 219 0 17 -15 13 -35 -9 -22 -25 -46 -25 -224 -4 -141 17 -175 28 -260
87 -44 30 -45 31 -29 96 2 8 -1 15 -7 17 -5 2 -43 -47 -82 -110z"/>
<path d="M2088 3454 c-3 -3 -1 -18 5 -33 6 -15 8 -35 4 -44 -5 -12 -102 -84
-164 -121 -15 -8 -82 80 -83 108 0 11 10 30 22 43 15 16 19 26 11 34 -16 16
-176 -90 -162 -108 8 -9 16 -10 29 -3 10 6 26 10 34 10 18 0 85 -87 86 -110 0
-14 -156 -120 -176 -120 -14 0 -74 98 -81 130 -4 23 1 38 20 63 42 55 20 66
-47 22 -31 -21 -56 -41 -56 -44 1 -15 227 -354 235 -352 6 1 9 16 7 34 -2 22
3 38 15 49 29 26 358 235 381 242 14 5 28 0 42 -14 12 -12 28 -20 35 -18 10 2
-1 27 -38 84 -29 44 -63 97 -75 117 -20 35 -32 44 -44 31z"/>
<path d="M5225 2194 c-11 -9 -50 -31 -87 -50 -79 -40 -93 -70 -29 -59 27 4 42
2 53 -8 16 -17 111 -396 106 -424 -2 -10 -20 -26 -40 -36 -40 -20 -50 -37 -20
-37 9 1 77 16 151 34 140 34 179 56 98 56 -24 0 -49 6 -55 13 -5 6 -38 128
-72 270 -36 146 -68 257 -74 257 -6 0 -20 -8 -31 -16z"/>
<path d="M3806 2181 c-56 -4 -101 -11 -103 -17 -2 -5 13 -18 32 -27 20 -9 38
-24 41 -32 8 -20 -85 -407 -102 -424 -8 -9 -29 -14 -54 -13 -28 2 -40 -1 -40
-11 0 -9 47 -24 148 -47 81 -19 149 -34 152 -33 18 6 4 22 -30 36 -32 12 -40
20 -40 41 0 23 84 386 110 476 13 46 13 60 -2 58 -7 -1 -58 -4 -112 -7z"/>
<path d="M4750 2122 l-125 -27 -24 -122 c-13 -68 -21 -129 -17 -138 4 -11 21
-15 63 -15 114 0 184 -39 203 -111 27 -98 -51 -177 -204 -209 -45 -9 -56 -15
-56 -31 0 -23 14 -24 98 -4 173 41 282 140 282 259 0 120 -78 181 -249 195
l-76 6 -3 32 c-4 40 5 45 137 69 85 15 95 19 112 48 24 40 25 76 2 75 -10 0
-74 -13 -143 -27z"/>
<path d="M4185 2112 c-64 -30 -95 -74 -95 -133 0 -56 10 -81 48 -121 14 -15
24 -29 21 -31 -2 -1 -23 -15 -46 -30 -104 -67 -100 -197 8 -253 16 -8 54 -19
85 -25 212 -39 335 149 188 288 l-45 41 39 22 c72 41 93 116 49 181 -45 68
-172 98 -252 61z m140 -46 c13 -13 27 -36 31 -51 8 -34 -10 -96 -35 -119 -24
-22 -44 -13 -90 39 -41 47 -41 86 -2 126 36 35 64 37 96 5z m-57 -303 c103
-77 66 -241 -47 -202 -72 25 -88 139 -30 213 22 28 25 27 77 -11z"/>
</g>
</svg>
